<?xml version="1.0" encoding="utf-8"?>
<!-- Generator: Adobe Illustrator 27.0.0, SVG Export Plug-In . SVG Version: 6.00 Build 0)  -->
<svg version="1.1" id="Layer_1" xmlns="http://www.w3.org/2000/svg" xmlns:xlink="http://www.w3.org/1999/xlink" x="0px" y="0px"
	 viewBox="0 0 100 100" style="enable-background:new 0 0 100 100;" xml:space="preserve">
<style type="text/css">
	.st0{clip-path:url(#SVGID_00000174566057556586374930000000388492156847589821_);}
	.st1{fill:none;stroke:#5B7193;stroke-width:0.25;stroke-miterlimit:10;}
</style>
<g>
	<defs>
		<rect id="SVGID_1_" width="100" height="100"/>
	</defs>
	<clipPath id="SVGID_00000059289301133673486130000014755312076118876587_">
		<use xlink:href="#SVGID_1_"  style="overflow:visible;"/>
	</clipPath>
	<g style="clip-path:url(#SVGID_00000059289301133673486130000014755312076118876587_);">
		<line class="st1" x1="66.4" y1="-69.2" x2="-68" y2="65.1"/>
		<line class="st1" x1="68.5" y1="-67.1" x2="-65.8" y2="67.3"/>
		<line class="st1" x1="70.7" y1="-64.9" x2="-63.7" y2="69.5"/>
		<line class="st1" x1="72.9" y1="-62.7" x2="-61.5" y2="71.7"/>
		<line class="st1" x1="75.1" y1="-60.6" x2="-59.3" y2="73.8"/>
		<line class="st1" x1="77.2" y1="-58.4" x2="-57.1" y2="76"/>
		<line class="st1" x1="79.4" y1="-56.2" x2="-55" y2="78.2"/>
		<line class="st1" x1="81.6" y1="-54" x2="-52.8" y2="80.3"/>
		<line class="st1" x1="83.8" y1="-51.9" x2="-50.6" y2="82.5"/>
		<line class="st1" x1="85.9" y1="-49.7" x2="-48.5" y2="84.7"/>
		<line class="st1" x1="88.1" y1="-47.5" x2="-46.3" y2="86.9"/>
		<line class="st1" x1="90.3" y1="-45.3" x2="-44.1" y2="89"/>
		<line class="st1" x1="92.4" y1="-43.2" x2="-41.9" y2="91.2"/>
		<line class="st1" x1="94.6" y1="-41" x2="-39.8" y2="93.4"/>
		<line class="st1" x1="96.8" y1="-38.8" x2="-37.6" y2="95.6"/>
		<line class="st1" x1="99" y1="-36.7" x2="-35.4" y2="97.7"/>
		<line class="st1" x1="101.1" y1="-34.5" x2="-33.3" y2="99.9"/>
		<line class="st1" x1="103.3" y1="-32.3" x2="-31.1" y2="102.1"/>
		<line class="st1" x1="105.5" y1="-30.1" x2="-28.9" y2="104.2"/>
		<line class="st1" x1="107.6" y1="-28" x2="-26.7" y2="106.4"/>
		<line class="st1" x1="109.8" y1="-25.8" x2="-24.6" y2="108.6"/>
		<line class="st1" x1="112" y1="-23.6" x2="-22.4" y2="110.8"/>
		<line class="st1" x1="114.2" y1="-21.5" x2="-20.2" y2="112.9"/>
		<line class="st1" x1="116.3" y1="-19.3" x2="-18" y2="115.1"/>
		<line class="st1" x1="118.5" y1="-17.1" x2="-15.9" y2="117.3"/>
		<line class="st1" x1="120.7" y1="-14.9" x2="-13.7" y2="119.4"/>
		<line class="st1" x1="122.8" y1="-12.8" x2="-11.5" y2="121.6"/>
		<line class="st1" x1="125" y1="-10.6" x2="-9.4" y2="123.8"/>
		<line class="st1" x1="127.2" y1="-8.4" x2="-7.2" y2="126"/>
		<line class="st1" x1="129.4" y1="-6.2" x2="-5" y2="128.1"/>
		<line class="st1" x1="131.5" y1="-4.1" x2="-2.8" y2="130.3"/>
		<line class="st1" x1="133.7" y1="-1.9" x2="-0.7" y2="132.5"/>
		<line class="st1" x1="135.9" y1="0.3" x2="1.5" y2="134.7"/>
		<line class="st1" x1="138.1" y1="2.4" x2="3.7" y2="136.8"/>
		<line class="st1" x1="140.2" y1="4.6" x2="5.8" y2="139"/>
		<line class="st1" x1="142.4" y1="6.8" x2="8" y2="141.2"/>
		<line class="st1" x1="144.6" y1="9" x2="10.2" y2="143.3"/>
		<line class="st1" x1="146.7" y1="11.1" x2="12.4" y2="145.5"/>
		<line class="st1" x1="148.9" y1="13.3" x2="14.5" y2="147.7"/>
		<line class="st1" x1="151.1" y1="15.5" x2="16.7" y2="149.9"/>
		<line class="st1" x1="153.3" y1="17.6" x2="18.9" y2="152"/>
		<line class="st1" x1="155.4" y1="19.8" x2="21" y2="154.2"/>
		<line class="st1" x1="157.6" y1="22" x2="23.2" y2="156.4"/>
		<line class="st1" x1="159.8" y1="24.2" x2="25.4" y2="158.5"/>
		<line class="st1" x1="161.9" y1="26.3" x2="27.6" y2="160.7"/>
		<line class="st1" x1="164.1" y1="28.5" x2="29.7" y2="162.9"/>
		<line class="st1" x1="166.3" y1="30.7" x2="31.9" y2="165.1"/>
		<line class="st1" x1="168.5" y1="32.9" x2="34.1" y2="167.2"/>
	</g>
</g>
</svg>
