<?xml version="1.0" encoding="utf-8"?>
<!-- Generator: Adobe Illustrator 26.0.3, SVG Export Plug-In . SVG Version: 6.00 Build 0)  -->
<svg version="1.1" id="Layer_1" xmlns="http://www.w3.org/2000/svg" xmlns:xlink="http://www.w3.org/1999/xlink" x="0px" y="0px"
	 viewBox="0 0 407.2 192.8" style="enable-background:new 0 0 407.2 192.8;" xml:space="preserve">
<style type="text/css">
	.st0{fill:#EBE9E9;}
	.st1{fill:#272836;}
	.st2{fill:#CC4D40;}
	.st3{fill:#5984C1;}
</style>
<rect class="st0" width="407.2" height="192.8"/>
<g>
	<path class="st1" d="M48.8,158.8v-8h2.8l1.9,5.8l1.9-5.8h2.8v8h-1.8v-6.4l-2.1,6.4h-1.5l-2.1-6.4v6.4H48.8z"/>
	<path class="st1" d="M59.4,158.8l3.1-8h1.9l3.1,8h-1.9l-0.5-1.4h-3.3l-0.5,1.4H59.4z M62.3,155.9h2.4l-1.2-3.3L62.3,155.9z"/>
	<path class="st1" d="M72.3,158.9c-0.9,0-1.6-0.2-2.2-0.5c-0.6-0.4-1.1-0.8-1.5-1.5c-0.3-0.6-0.5-1.3-0.5-2.1s0.2-1.5,0.5-2.1
		c0.3-0.6,0.8-1.1,1.5-1.5c0.6-0.4,1.4-0.5,2.2-0.5c0.5,0,1,0.1,1.5,0.2c0.5,0.1,0.9,0.4,1.4,0.7l-0.6,1.3c-0.4-0.2-0.8-0.4-1.1-0.5
		c-0.4-0.1-0.7-0.2-1.1-0.2c-0.5,0-0.9,0.1-1.3,0.3s-0.7,0.5-0.9,0.9s-0.3,0.8-0.3,1.4c0,0.5,0.1,1,0.3,1.4c0.2,0.4,0.5,0.7,0.9,0.9
		c0.4,0.2,0.8,0.3,1.3,0.3c0.4,0,0.8-0.1,1.1-0.2c0.4-0.1,0.7-0.3,1.1-0.5l0.6,1.3c-0.4,0.3-0.9,0.5-1.4,0.7
		C73.3,158.8,72.8,158.9,72.3,158.9z"/>
	<path class="st1" d="M76.5,158.8v-8h1.8v3.1h3.5v-3.1h1.8v8h-1.8v-3.4h-3.5v3.4H76.5z"/>
	<path class="st1" d="M85.6,158.8v-8h1.8v8H85.6z"/>
	<path class="st1" d="M89.3,158.8v-8h1.9l3.4,5.4v-5.4h1.8v8h-1.9l-3.4-5.4v5.4H89.3z"/>
	<path class="st1" d="M98.3,158.8v-8h5.8v1.5h-4.1v1.7h3.7v1.4h-3.7v2h4.1v1.5H98.3z"/>
	<path class="st1" d="M108.9,158.8v-8h1.8v6.5h3.5v1.5H108.9z"/>
	<path class="st1" d="M115.5,158.8v-8h5.8v1.5h-4.1v1.7h3.7v1.4h-3.7v2h4.1v1.5H115.5z"/>
	<path class="st1" d="M122.4,158.8l3.1-8h1.9l3.1,8h-1.9l-0.5-1.4h-3.3l-0.5,1.4H122.4z M125.3,155.9h2.4l-1.2-3.3L125.3,155.9z"/>
	<path class="st1" d="M131.8,158.8v-8h3.4c1,0,1.8,0.2,2.3,0.6s0.8,1,0.8,1.9c0,0.7-0.2,1.2-0.5,1.6s-0.8,0.6-1.4,0.8l2.3,3.2h-2.1
		l-2.1-3h-1v3H131.8z M133.6,154.4h1.4c0.6,0,1-0.1,1.2-0.3s0.4-0.5,0.4-0.8c0-0.4-0.1-0.7-0.4-0.8c-0.2-0.2-0.7-0.3-1.2-0.3h-1.4
		V154.4z"/>
	<path class="st1" d="M140,158.8v-8h1.9l3.4,5.4v-5.4h1.8v8h-1.9l-3.4-5.4v5.4H140z"/>
	<path class="st1" d="M149,158.8v-8h1.8v8H149z"/>
	<path class="st1" d="M152.7,158.8v-8h1.9l3.4,5.4v-5.4h1.8v8h-1.9l-3.4-5.4v5.4H152.7z"/>
	<path class="st1" d="M165.6,158.9c-0.9,0-1.6-0.2-2.2-0.5c-0.6-0.4-1.1-0.8-1.5-1.5c-0.3-0.6-0.5-1.3-0.5-2.1s0.2-1.5,0.5-2.1
		c0.3-0.6,0.8-1.1,1.5-1.5c0.6-0.4,1.4-0.5,2.2-0.5c0.5,0,1.1,0.1,1.6,0.2c0.5,0.1,1,0.4,1.4,0.7l-0.6,1.3c-0.4-0.2-0.8-0.4-1.2-0.5
		c-0.4-0.1-0.8-0.2-1.2-0.2c-0.5,0-0.9,0.1-1.3,0.3s-0.7,0.5-0.9,0.9s-0.3,0.8-0.3,1.4c0,0.5,0.1,1,0.3,1.4c0.2,0.4,0.5,0.7,0.9,0.9
		c0.4,0.2,0.8,0.3,1.3,0.3c0.4,0,0.7-0.1,1-0.2c0.3-0.1,0.6-0.3,0.8-0.5v-1.1h-1.9v-1.4h3.6v3c-0.4,0.5-0.8,0.9-1.4,1.2
		C167.1,158.8,166.4,158.9,165.6,158.9z"/>
</g>
<g>
	<path class="st1" d="M259,158.8v-8h1.8v8H259z"/>
	<path class="st1" d="M262.8,158.8v-8h1.9l3.4,5.4v-5.4h1.8v8h-1.9l-3.4-5.4v5.4H262.8z"/>
	<path class="st1" d="M277.2,158.8l-3.1-8h1.9l2.1,6l2.1-6h2l-3.1,8H277.2z"/>
	<path class="st1" d="M283.5,158.8v-8h1.8v8H283.5z"/>
	<path class="st1" d="M289,158.8v-6.5h-2.3v-1.5h6.4v1.5h-2.3v6.5H289z"/>
	<path class="st1" d="M294.4,158.8v-8h3.4c1,0,1.8,0.2,2.3,0.6c0.5,0.4,0.8,1,0.8,1.9c0,0.7-0.2,1.2-0.5,1.6s-0.8,0.6-1.4,0.8
		l2.3,3.2h-2.1l-2.1-3h-1v3H294.4z M296.2,154.4h1.4c0.6,0,1-0.1,1.2-0.3s0.4-0.5,0.4-0.8c0-0.4-0.1-0.7-0.4-0.8
		c-0.2-0.2-0.7-0.3-1.2-0.3h-1.4V154.4z"/>
	<path class="st1" d="M306.3,158.9c-0.9,0-1.6-0.2-2.2-0.5c-0.6-0.4-1.1-0.8-1.5-1.5s-0.5-1.3-0.5-2.1s0.2-1.5,0.5-2.1
		c0.3-0.6,0.8-1.1,1.5-1.5c0.6-0.4,1.4-0.5,2.2-0.5c0.9,0,1.6,0.2,2.2,0.5c0.6,0.4,1.1,0.8,1.5,1.5s0.5,1.3,0.5,2.1
		s-0.2,1.5-0.5,2.1s-0.8,1.1-1.5,1.5C307.9,158.7,307.2,158.9,306.3,158.9z M306.3,157.4c0.5,0,0.9-0.1,1.3-0.3
		c0.4-0.2,0.7-0.5,0.9-0.9c0.2-0.4,0.3-0.8,0.3-1.4c0-0.5-0.1-1-0.3-1.4s-0.5-0.7-0.9-0.9c-0.4-0.2-0.8-0.3-1.3-0.3
		c-0.5,0-0.9,0.1-1.3,0.3s-0.7,0.5-0.9,0.9s-0.3,0.8-0.3,1.4c0,0.5,0.1,1,0.3,1.4c0.2,0.4,0.5,0.7,0.9,0.9
		C305.4,157.3,305.8,157.4,306.3,157.4z"/>
	<path class="st1" d="M314.5,158.8l3.1-8h1.9l3.1,8h-1.9l-0.5-1.4h-3.3l-0.5,1.4H314.5z M317.4,155.9h2.4l-1.2-3.3L317.4,155.9z"/>
	<path class="st1" d="M326.6,158.9c-0.6,0-1.1-0.1-1.6-0.2c-0.5-0.2-1-0.4-1.4-0.8l0.6-1.3c0.4,0.3,0.9,0.5,1.3,0.7
		c0.4,0.2,0.8,0.2,1.1,0.2c0.5,0,0.8-0.1,1.1-0.3s0.4-0.4,0.4-0.7c0-0.2-0.1-0.4-0.2-0.6c-0.2-0.2-0.4-0.3-0.7-0.3l-1.1-0.2
		c-0.8-0.1-1.3-0.4-1.7-0.7c-0.3-0.4-0.5-0.8-0.5-1.3c0-0.5,0.1-0.9,0.3-1.3c0.2-0.4,0.5-0.7,1-0.9c0.4-0.2,1-0.4,1.7-0.4
		c0.5,0,0.9,0.1,1.4,0.2s0.9,0.3,1.4,0.7l-0.6,1.3c-0.4-0.2-0.8-0.4-1.1-0.5c-0.3-0.1-0.7-0.2-1-0.2c-0.4,0-0.7,0.1-0.9,0.2
		c-0.2,0.2-0.3,0.4-0.3,0.7c0,0.2,0.1,0.4,0.2,0.5c0.2,0.1,0.4,0.2,0.7,0.3l1.1,0.2c0.8,0.1,1.3,0.4,1.6,0.8s0.5,0.9,0.5,1.4
		c0,0.8-0.3,1.5-0.8,1.9C328.4,158.7,327.6,158.9,326.6,158.9z"/>
	<path class="st1" d="M333.9,158.9c-0.6,0-1.1-0.1-1.6-0.2c-0.5-0.2-1-0.4-1.4-0.8l0.6-1.3c0.4,0.3,0.9,0.5,1.3,0.7
		c0.4,0.2,0.8,0.2,1.1,0.2c0.5,0,0.8-0.1,1.1-0.3s0.4-0.4,0.4-0.7c0-0.2-0.1-0.4-0.2-0.6c-0.2-0.2-0.4-0.3-0.7-0.3l-1.1-0.2
		c-0.8-0.1-1.3-0.4-1.7-0.7c-0.3-0.4-0.5-0.8-0.5-1.3c0-0.5,0.1-0.9,0.3-1.3c0.2-0.4,0.5-0.7,1-0.9c0.4-0.2,1-0.4,1.7-0.4
		c0.5,0,0.9,0.1,1.4,0.2s0.9,0.3,1.4,0.7l-0.6,1.3c-0.4-0.2-0.8-0.4-1.1-0.5c-0.3-0.1-0.7-0.2-1-0.2c-0.4,0-0.7,0.1-0.9,0.2
		c-0.2,0.2-0.3,0.4-0.3,0.7c0,0.2,0.1,0.4,0.2,0.5c0.2,0.1,0.4,0.2,0.7,0.3l1.1,0.2c0.8,0.1,1.3,0.4,1.6,0.8s0.5,0.9,0.5,1.4
		c0,0.8-0.3,1.5-0.8,1.9C335.7,158.7,334.9,158.9,333.9,158.9z"/>
	<path class="st1" d="M337.8,158.8l3.1-8h1.9l3.1,8h-1.9l-0.5-1.4h-3.3l-0.5,1.4H337.8z M340.7,155.9h2.4l-1.2-3.3L340.7,155.9z"/>
	<path class="st1" d="M348.7,158.8v-3l-3.1-5h2.1l1.9,3.3l1.9-3.3h2.1l-3.1,5v3H348.7z"/>
</g>
<g>
	<path class="st1" d="M199.9,92.6v-9.7h-9.5v-6.4h9.5v-9.7h6.8v9.7h9.5v6.4h-9.5v9.7H199.9z"/>
</g>
<g>
	<path class="st2" d="M349.6,117.8h-81.9V34.6c0-0.6-0.5-1.1-1.1-1.1s-1.1,0.5-1.1,1.1v7.3h-4.3c-0.6,0-1.1,0.5-1.1,1.1
		c0,0.6,0.5,1.1,1.1,1.1h4.3v9.1h-4.3c-0.6,0-1.1,0.5-1.1,1.1s0.5,1.1,1.1,1.1h4.3v9.1h-4.3c-0.6,0-1.1,0.5-1.1,1.1
		c0,0.6,0.5,1.1,1.1,1.1h4.3v9.1h-4.3c-0.6,0-1.1,0.5-1.1,1.1c0,0.6,0.5,1.1,1.1,1.1h4.3v9.1h-4.3c-0.6,0-1.1,0.5-1.1,1.1
		s0.5,1.1,1.1,1.1h4.3v9.1h-4.3c-0.6,0-1.1,0.5-1.1,1.1s0.5,1.1,1.1,1.1h4.3v9.1h-4.3c-0.6,0-1.1,0.5-1.1,1.1s0.5,1.1,1.1,1.1h4.3
		v7.3c0,0.6,0.5,1.1,1.1,1.1h6.7v4.3c0,0.6,0.5,1.1,1.1,1.1s1.1-0.5,1.1-1.1v-4.3h9.1v4.3c0,0.6,0.5,1.1,1.1,1.1s1.1-0.5,1.1-1.1
		v-4.3h9.1v4.3c0,0.6,0.5,1.1,1.1,1.1c0.6,0,1.1-0.5,1.1-1.1v-4.3h9.1v4.3c0,0.6,0.5,1.1,1.1,1.1c0.6,0,1.1-0.5,1.1-1.1v-4.3h9.1
		v4.3c0,0.6,0.5,1.1,1.1,1.1s1.1-0.5,1.1-1.1v-4.3h9.1v4.3c0,0.6,0.5,1.1,1.1,1.1s1.1-0.5,1.1-1.1v-4.3h9.1v4.3
		c0,0.6,0.5,1.1,1.1,1.1s1.1-0.5,1.1-1.1v-4.3h6.7c0.6,0,1.1-0.5,1.1-1.1S350.2,117.8,349.6,117.8z"/>
	<path class="st2" d="M272.3,89.9c0,2.2,1.8,4.1,4.1,4.1c2.2,0,4.1-1.8,4.1-4.1s-1.8-4.1-4.1-4.1C274.1,85.9,272.3,87.7,272.3,89.9z
		 M276.4,88c1.1,0,1.9,0.9,1.9,1.9s-0.9,1.9-1.9,1.9c-1.1,0-1.9-0.9-1.9-1.9S275.3,88,276.4,88z"/>
	<path class="st2" d="M276.4,104.1c2.2,0,4.1-1.8,4.1-4.1c0-2.2-1.8-4.1-4.1-4.1c-2.2,0-4.1,1.8-4.1,4.1
		C272.3,102.3,274.1,104.1,276.4,104.1z M276.4,98.1c1.1,0,1.9,0.9,1.9,1.9c0,1.1-0.9,1.9-1.9,1.9c-1.1,0-1.9-0.9-1.9-1.9
		C274.4,99,275.3,98.1,276.4,98.1z"/>
	<path class="st2" d="M276.4,114.2c2.2,0,4.1-1.8,4.1-4.1c0-2.2-1.8-4.1-4.1-4.1c-2.2,0-4.1,1.8-4.1,4.1
		C272.3,112.3,274.1,114.2,276.4,114.2z M276.4,108.2c1.1,0,1.9,0.9,1.9,1.9c0,1.1-0.9,1.9-1.9,1.9c-1.1,0-1.9-0.9-1.9-1.9
		C274.4,109,275.3,108.2,276.4,108.2z"/>
	<path class="st2" d="M286.3,75.8c-2.2,0-4.1,1.8-4.1,4.1c0,2.2,1.8,4.1,4.1,4.1c2.2,0,4.1-1.8,4.1-4.1
		C290.3,77.6,288.5,75.8,286.3,75.8z M286.3,81.8c-1.1,0-1.9-0.9-1.9-1.9c0-1.1,0.9-1.9,1.9-1.9c1.1,0,1.9,0.9,1.9,1.9
		C288.2,80.9,287.3,81.8,286.3,81.8z"/>
	<path class="st2" d="M286.3,85.9c-2.2,0-4.1,1.8-4.1,4.1s1.8,4.1,4.1,4.1c2.2,0,4.1-1.8,4.1-4.1S288.5,85.9,286.3,85.9z
		 M286.3,91.9c-1.1,0-1.9-0.9-1.9-1.9s0.9-1.9,1.9-1.9c1.1,0,1.9,0.9,1.9,1.9S287.3,91.9,286.3,91.9z"/>
	<path class="st2" d="M282.2,69.8c0,2.2,1.8,4.1,4.1,4.1c2.2,0,4.1-1.8,4.1-4.1c0-2.2-1.8-4.1-4.1-4.1
		C284,65.7,282.2,67.5,282.2,69.8z M286.3,67.9c1.1,0,1.9,0.9,1.9,1.9c0,1.1-0.9,1.9-1.9,1.9c-1.1,0-1.9-0.9-1.9-1.9
		C284.3,68.7,285.2,67.9,286.3,67.9z"/>
	<path class="st2" d="M286.3,96c-2.2,0-4.1,1.8-4.1,4.1c0,2.2,1.8,4.1,4.1,4.1c2.2,0,4.1-1.8,4.1-4.1C290.3,97.8,288.5,96,286.3,96z
		 M286.3,101.9c-1.1,0-1.9-0.9-1.9-1.9c0-1.1,0.9-1.9,1.9-1.9c1.1,0,1.9,0.9,1.9,1.9C288.2,101.1,287.3,101.9,286.3,101.9z"/>
	<path class="st2" d="M286.3,106c-2.2,0-4.1,1.8-4.1,4.1c0,2.2,1.8,4.1,4.1,4.1c2.2,0,4.1-1.8,4.1-4.1
		C290.3,107.9,288.5,106,286.3,106z M286.3,112c-1.1,0-1.9-0.9-1.9-1.9c0-1.1,0.9-1.9,1.9-1.9c1.1,0,1.9,0.9,1.9,1.9
		C288.2,111.2,287.3,112,286.3,112z"/>
	<path class="st2" d="M292.1,79.9c0,2.2,1.8,4.1,4.1,4.1c2.2,0,4.1-1.8,4.1-4.1c0-2.2-1.8-4.1-4.1-4.1
		C293.9,75.8,292.1,77.6,292.1,79.9z M296.2,78c1.1,0,1.9,0.9,1.9,1.9c0,1.1-0.9,1.9-1.9,1.9c-1.1,0-1.9-0.9-1.9-1.9
		C294.2,78.8,295.1,78,296.2,78z"/>
	<path class="st2" d="M296.2,85.9c-2.2,0-4.1,1.8-4.1,4.1s1.8,4.1,4.1,4.1c2.2,0,4.1-1.8,4.1-4.1S298.4,85.9,296.2,85.9z
		 M296.2,91.9c-1.1,0-1.9-0.9-1.9-1.9s0.9-1.9,1.9-1.9c1.1,0,1.9,0.9,1.9,1.9S297.2,91.9,296.2,91.9z"/>
	<path class="st2" d="M296.2,96c-2.2,0-4.1,1.8-4.1,4.1c0,2.2,1.8,4.1,4.1,4.1c2.2,0,4.1-1.8,4.1-4.1C300.2,97.8,298.4,96,296.2,96z
		 M296.2,101.9c-1.1,0-1.9-0.9-1.9-1.9c0-1.1,0.9-1.9,1.9-1.9c1.1,0,1.9,0.9,1.9,1.9C298.1,101.1,297.2,101.9,296.2,101.9z"/>
	<path class="st2" d="M296.2,106c-2.2,0-4.1,1.8-4.1,4.1c0,2.2,1.8,4.1,4.1,4.1c2.2,0,4.1-1.8,4.1-4.1
		C300.2,107.9,298.4,106,296.2,106z M296.2,112c-1.1,0-1.9-0.9-1.9-1.9c0-1.1,0.9-1.9,1.9-1.9c1.1,0,1.9,0.9,1.9,1.9
		C298.1,111.2,297.2,112,296.2,112z"/>
	<path class="st2" d="M302,89.9c0,2.2,1.8,4.1,4.1,4.1c2.2,0,4.1-1.8,4.1-4.1s-1.8-4.1-4.1-4.1C303.8,85.9,302,87.7,302,89.9z
		 M306.1,88c1.1,0,1.9,0.9,1.9,1.9s-0.9,1.9-1.9,1.9c-1.1,0-1.9-0.9-1.9-1.9S305,88,306.1,88z"/>
	<path class="st2" d="M306.1,96c-2.2,0-4.1,1.8-4.1,4.1c0,2.2,1.8,4.1,4.1,4.1c2.2,0,4.1-1.8,4.1-4.1C310.1,97.8,308.3,96,306.1,96z
		 M306.1,101.9c-1.1,0-1.9-0.9-1.9-1.9c0-1.1,0.9-1.9,1.9-1.9c1.1,0,1.9,0.9,1.9,1.9C308,101.1,307.1,101.9,306.1,101.9z"/>
	<path class="st2" d="M306.1,106c-2.2,0-4.1,1.8-4.1,4.1c0,2.2,1.8,4.1,4.1,4.1c2.2,0,4.1-1.8,4.1-4.1
		C310.1,107.9,308.3,106,306.1,106z M306.1,112c-1.1,0-1.9-0.9-1.9-1.9c0-1.1,0.9-1.9,1.9-1.9c1.1,0,1.9,0.9,1.9,1.9
		C308,111.2,307.1,112,306.1,112z"/>
	<path class="st2" d="M311.9,79.9c0,2.2,1.8,4.1,4.1,4.1c2.2,0,4.1-1.8,4.1-4.1c0-2.2-1.8-4.1-4.1-4.1
		C313.7,75.8,311.9,77.6,311.9,79.9z M316,78c1.1,0,1.9,0.9,1.9,1.9c0,1.1-0.9,1.9-1.9,1.9c-1.1,0-1.9-0.9-1.9-1.9
		C314,78.8,314.9,78,316,78z"/>
	<path class="st2" d="M316,85.9c-2.2,0-4.1,1.8-4.1,4.1s1.8,4.1,4.1,4.1c2.2,0,4.1-1.8,4.1-4.1S318.2,85.9,316,85.9z M316,91.9
		c-1.1,0-1.9-0.9-1.9-1.9s0.9-1.9,1.9-1.9c1.1,0,1.9,0.9,1.9,1.9S317,91.9,316,91.9z"/>
	<path class="st2" d="M316,96c-2.2,0-4.1,1.8-4.1,4.1c0,2.2,1.8,4.1,4.1,4.1c2.2,0,4.1-1.8,4.1-4.1C320,97.8,318.2,96,316,96z
		 M316,101.9c-1.1,0-1.9-0.9-1.9-1.9c0-1.1,0.9-1.9,1.9-1.9c1.1,0,1.9,0.9,1.9,1.9C317.9,101.1,317,101.9,316,101.9z"/>
	<path class="st2" d="M316,106c-2.2,0-4.1,1.8-4.1,4.1c0,2.2,1.8,4.1,4.1,4.1c2.2,0,4.1-1.8,4.1-4.1C320,107.9,318.2,106,316,106z
		 M316,112c-1.1,0-1.9-0.9-1.9-1.9c0-1.1,0.9-1.9,1.9-1.9c1.1,0,1.9,0.9,1.9,1.9C317.9,111.2,317,112,316,112z"/>
	<path class="st2" d="M325.9,75.8c-2.2,0-4.1,1.8-4.1,4.1c0,2.2,1.8,4.1,4.1,4.1c2.2,0,4.1-1.8,4.1-4.1
		C329.9,77.6,328.1,75.8,325.9,75.8z M325.9,81.8c-1.1,0-1.9-0.9-1.9-1.9c0-1.1,0.9-1.9,1.9-1.9c1.1,0,1.9,0.9,1.9,1.9
		C327.8,80.9,326.9,81.8,325.9,81.8z"/>
	<path class="st2" d="M325.9,85.9c-2.2,0-4.1,1.8-4.1,4.1s1.8,4.1,4.1,4.1c2.2,0,4.1-1.8,4.1-4.1S328.1,85.9,325.9,85.9z
		 M325.9,91.9c-1.1,0-1.9-0.9-1.9-1.9s0.9-1.9,1.9-1.9c1.1,0,1.9,0.9,1.9,1.9S326.9,91.9,325.9,91.9z"/>
	<path class="st2" d="M321.8,69.8c0,2.2,1.8,4.1,4.1,4.1c2.2,0,4.1-1.8,4.1-4.1c0-2.2-1.8-4.1-4.1-4.1
		C323.6,65.7,321.8,67.5,321.8,69.8z M325.9,67.9c1.1,0,1.9,0.9,1.9,1.9c0,1.1-0.9,1.9-1.9,1.9c-1.1,0-1.9-0.9-1.9-1.9
		C323.9,68.7,324.8,67.9,325.9,67.9z"/>
	<path class="st2" d="M325.9,96c-2.2,0-4.1,1.8-4.1,4.1c0,2.2,1.8,4.1,4.1,4.1c2.2,0,4.1-1.8,4.1-4.1C329.9,97.8,328.1,96,325.9,96z
		 M325.9,101.9c-1.1,0-1.9-0.9-1.9-1.9c0-1.1,0.9-1.9,1.9-1.9c1.1,0,1.9,0.9,1.9,1.9C327.8,101.1,326.9,101.9,325.9,101.9z"/>
	<path class="st2" d="M325.9,106c-2.2,0-4.1,1.8-4.1,4.1c0,2.2,1.8,4.1,4.1,4.1c2.2,0,4.1-1.8,4.1-4.1
		C329.9,107.9,328.1,106,325.9,106z M325.9,112c-1.1,0-1.9-0.9-1.9-1.9c0-1.1,0.9-1.9,1.9-1.9c1.1,0,1.9,0.9,1.9,1.9
		C327.8,111.2,326.9,112,325.9,112z"/>
	<path class="st2" d="M335.8,75.8c-2.2,0-4.1,1.8-4.1,4.1c0,2.2,1.8,4.1,4.1,4.1s4.1-1.8,4.1-4.1C339.8,77.6,338,75.8,335.8,75.8z
		 M335.8,81.8c-1.1,0-1.9-0.9-1.9-1.9c0-1.1,0.9-1.9,1.9-1.9s1.9,0.9,1.9,1.9C337.7,80.9,336.8,81.8,335.8,81.8z"/>
	<path class="st2" d="M335.8,85.9c-2.2,0-4.1,1.8-4.1,4.1s1.8,4.1,4.1,4.1s4.1-1.8,4.1-4.1S338,85.9,335.8,85.9z M335.8,91.9
		c-1.1,0-1.9-0.9-1.9-1.9s0.9-1.9,1.9-1.9s1.9,0.9,1.9,1.9S336.8,91.9,335.8,91.9z"/>
	<path class="st2" d="M335.8,65.7c-2.2,0-4.1,1.8-4.1,4.1c0,2.2,1.8,4.1,4.1,4.1s4.1-1.8,4.1-4.1C339.8,67.5,338,65.7,335.8,65.7z
		 M335.8,71.7c-1.1,0-1.9-0.9-1.9-1.9c0-1.1,0.9-1.9,1.9-1.9s1.9,0.9,1.9,1.9C337.7,70.8,336.8,71.7,335.8,71.7z"/>
	<path class="st2" d="M331.7,59.7c0,2.2,1.8,4.1,4.1,4.1c2.2,0,4.1-1.8,4.1-4.1s-1.8-4.1-4.1-4.1C333.5,55.6,331.7,57.5,331.7,59.7z
		 M335.8,57.8c1.1,0,1.9,0.9,1.9,1.9s-0.9,1.9-1.9,1.9s-1.9-0.9-1.9-1.9S334.7,57.8,335.8,57.8z"/>
	<path class="st2" d="M335.8,96c-2.2,0-4.1,1.8-4.1,4.1c0,2.2,1.8,4.1,4.1,4.1s4.1-1.8,4.1-4.1C339.8,97.8,338,96,335.8,96z
		 M335.8,101.9c-1.1,0-1.9-0.9-1.9-1.9c0-1.1,0.9-1.9,1.9-1.9s1.9,0.9,1.9,1.9C337.7,101.1,336.8,101.9,335.8,101.9z"/>
	<path class="st2" d="M335.8,106c-2.2,0-4.1,1.8-4.1,4.1c0,2.2,1.8,4.1,4.1,4.1s4.1-1.8,4.1-4.1C339.8,107.9,338,106,335.8,106z
		 M335.8,112c-1.1,0-1.9-0.9-1.9-1.9c0-1.1,0.9-1.9,1.9-1.9s1.9,0.9,1.9,1.9C337.7,111.2,336.8,112,335.8,112z"/>
	<path class="st2" d="M341.6,79.9c0,2.2,1.8,4.1,4.1,4.1s4.1-1.8,4.1-4.1c0-2.2-1.8-4.1-4.1-4.1S341.6,77.6,341.6,79.9z M345.6,78
		c1.1,0,1.9,0.9,1.9,1.9c0,1.1-0.9,1.9-1.9,1.9s-1.9-0.9-1.9-1.9C343.7,78.8,344.6,78,345.6,78z"/>
	<path class="st2" d="M345.6,85.9c-2.2,0-4.1,1.8-4.1,4.1s1.8,4.1,4.1,4.1s4.1-1.8,4.1-4.1S347.9,85.9,345.6,85.9z M345.6,91.9
		c-1.1,0-1.9-0.9-1.9-1.9s0.9-1.9,1.9-1.9s1.9,0.9,1.9,1.9S346.7,91.9,345.6,91.9z"/>
	<path class="st2" d="M345.6,96c-2.2,0-4.1,1.8-4.1,4.1c0,2.2,1.8,4.1,4.1,4.1s4.1-1.8,4.1-4.1C349.7,97.8,347.9,96,345.6,96z
		 M345.6,101.9c-1.1,0-1.9-0.9-1.9-1.9c0-1.1,0.9-1.9,1.9-1.9s1.9,0.9,1.9,1.9C347.6,101.1,346.7,101.9,345.6,101.9z"/>
	<path class="st2" d="M345.6,106c-2.2,0-4.1,1.8-4.1,4.1c0,2.2,1.8,4.1,4.1,4.1s4.1-1.8,4.1-4.1C349.7,107.9,347.9,106,345.6,106z
		 M345.6,112c-1.1,0-1.9-0.9-1.9-1.9c0-1.1,0.9-1.9,1.9-1.9s1.9,0.9,1.9,1.9C347.6,111.2,346.7,112,345.6,112z"/>
	<path class="st2" d="M276.8,72l0.7-1.2c0.2-0.3,0.1-0.6-0.2-0.7c-0.3-0.2-0.6-0.1-0.7,0.2l-0.7,1.2c-0.2,0.3-0.1,0.6,0.2,0.7
		C276.4,72.3,276.7,72.2,276.8,72z"/>
	<path class="st2" d="M279.2,67.9l1.7-2.8c0.2-0.3,0.1-0.6-0.2-0.7c-0.3-0.2-0.6-0.1-0.7,0.2l-1.7,2.8c-0.2,0.3-0.1,0.6,0.2,0.7
		C278.7,68.2,279.1,68.1,279.2,67.9z"/>
	<path class="st2" d="M284.1,58.6c-0.3-0.1-0.6-0.1-0.7,0.2l-1.7,2.8c-0.2,0.3-0.1,0.6,0.2,0.7c0.3,0.1,0.6,0.1,0.7-0.2l1.7-2.8
		C284.4,59.1,284.3,58.8,284.1,58.6z"/>
	<path class="st2" d="M285.9,56.5l0.3-0.5l0.4,0.5c0.2,0.2,0.5,0.3,0.8,0.1c0.2-0.2,0.3-0.5,0.1-0.8l-0.9-1.1
		c-0.1-0.1-0.3-0.2-0.5-0.2c-0.2,0-0.3,0.1-0.4,0.3L285,56c-0.2,0.3-0.1,0.6,0.2,0.7C285.4,56.8,285.8,56.8,285.9,56.5z"/>
	<path class="st2" d="M295.9,68.8l1.6,1.1c0.2,0.2,0.6,0.1,0.7-0.1c0.2-0.2,0.1-0.6-0.1-0.7l-1.6-1.1l-0.5-0.6
		c-0.2-0.2-0.5-0.3-0.8-0.1c-0.2,0.2-0.3,0.5-0.1,0.8l0.5,0.7C295.8,68.7,295.8,68.8,295.9,68.8z"/>
	<path class="st2" d="M300.5,70.7c-0.2-0.2-0.6-0.1-0.7,0.1s-0.1,0.6,0.1,0.7l2.4,1.6c0.2,0.2,0.6,0.1,0.7-0.1
		c0.2-0.2,0.1-0.6-0.1-0.7L300.5,70.7z"/>
	<path class="st2" d="M292.6,62.7c-0.2-0.2-0.5-0.3-0.8-0.1c-0.2,0.2-0.3,0.5-0.1,0.8l1.7,2.3c0.2,0.2,0.5,0.3,0.8,0.1
		c0.2-0.2,0.3-0.5,0.1-0.8L292.6,62.7z"/>
	<path class="st2" d="M290.8,61.2c0.2-0.2,0.3-0.5,0.1-0.8l-1.7-2.3c-0.2-0.2-0.5-0.3-0.8-0.1c-0.2,0.2-0.3,0.5-0.1,0.8l1.7,2.3
		C290.2,61.3,290.6,61.4,290.8,61.2z"/>
	<path class="st2" d="M306.3,75.7l1.2-0.7c0.3-0.2,0.3-0.5,0.2-0.7c-0.2-0.3-0.5-0.3-0.7-0.2l-0.9,0.6l-0.9-0.6
		c-0.2-0.2-0.6-0.1-0.7,0.1c-0.2,0.2-0.1,0.6,0.1,0.7c1.2,0.8,1.2,0.9,1.5,0.9C306.2,75.8,306.2,75.8,306.3,75.7z"/>
	<path class="st2" d="M312,71l-2.5,1.5c-0.3,0.2-0.3,0.5-0.2,0.7c0.2,0.3,0.5,0.3,0.7,0.2l2.5-1.5c0.3-0.2,0.3-0.5,0.2-0.7
		C312.6,70.9,312.3,70.9,312,71z"/>
	<path class="st2" d="M315.1,70.4l1-0.6c0.1,0,0.1-0.1,0.2-0.1l1.1-1.4c0.2-0.2,0.1-0.6-0.1-0.8c-0.2-0.2-0.6-0.1-0.8,0.1l-1,1.4
		l-0.9,0.6c-0.3,0.2-0.3,0.5-0.2,0.7C314.5,70.5,314.9,70.5,315.1,70.4z"/>
	<path class="st2" d="M319.1,65.8l1.7-2.4c0.2-0.2,0.1-0.6-0.1-0.8c-0.2-0.2-0.6-0.1-0.8,0.1l-1.7,2.4c-0.2,0.2-0.1,0.6,0.1,0.8
		c0.1,0.1,0.2,0.1,0.3,0.1C318.8,66,319,66,319.1,65.8z"/>
	<path class="st2" d="M332,49.8l-2.3,1.9c-0.2,0.2-0.3,0.5-0.1,0.8c0.2,0.2,0.5,0.3,0.8,0.1l2.3-1.9c0.2-0.2,0.3-0.5,0.1-0.8
		C332.6,49.7,332.3,49.6,332,49.8z"/>
	<path class="st2" d="M326,56.3l2.1-1.8c0.2-0.2,0.3-0.5,0.1-0.8c-0.2-0.2-0.5-0.3-0.8-0.1l-2.2,1.8l-0.2,0.2
		c-0.2,0.2-0.1,0.6,0.1,0.8C325.5,56.6,325.9,56.5,326,56.3z"/>
	<path class="st2" d="M323.4,58l-1.7,2.4c-0.2,0.2-0.1,0.6,0.1,0.8c0.2,0.2,0.6,0.1,0.8-0.1l1.7-2.4c0.2-0.2,0.1-0.6-0.1-0.8
		C323.9,57.7,323.6,57.8,323.4,58z"/>
	<path class="st2" d="M335,48.8l0.7-0.6l0.5,0.7c0.2,0.2,0.5,0.3,0.8,0.1c0.2-0.2,0.3-0.5,0.1-0.8l-0.9-1.1
		c-0.1-0.1-0.2-0.2-0.4-0.2c-0.2,0-0.3,0-0.4,0.1l-1.1,0.9c-0.2,0.2-0.3,0.5-0.1,0.8C334.4,48.9,334.8,49,335,48.8z"/>
	<path class="st2" d="M341.9,54.6c-0.2-0.2-0.5-0.3-0.8-0.1c-0.2,0.2-0.3,0.5-0.1,0.8l1.6,2.1c0.2,0.2,0.5,0.3,0.8,0.1
		c0.2-0.2,0.3-0.5,0.1-0.8L341.9,54.6z"/>
	<path class="st2" d="M340.2,53.2c0.2-0.2,0.3-0.5,0.1-0.8l-1.6-2.1c-0.2-0.2-0.5-0.3-0.8-0.1c-0.2,0.2-0.3,0.5-0.1,0.8l1.6,2.1
		C339.6,53.4,340,53.4,340.2,53.2z"/>
	<path class="st2" d="M346,60.7c0.2-0.2,0.3-0.5,0.1-0.8l-0.9-1.1c-0.2-0.2-0.5-0.3-0.8-0.1c-0.2,0.2-0.3,0.5-0.1,0.8l0.9,1.1
		C345.4,60.9,345.7,60.9,346,60.7z"/>
</g>
<path class="st3" d="M153.7,70.8c-3.8,0-7,2.5-8.1,5.8L129.4,53c-0.2-4.6-4-8.2-8.6-8.2c-4.4,0-8,3.3-8.5,7.5H105
	c-0.5-4.2-4.1-7.5-8.5-7.5c-4.6,0-8.4,3.7-8.6,8.2L71.8,76.6c-1.2-3.4-4.3-5.8-8.1-5.8c-4.7,0-8.6,3.9-8.6,8.6
	c0,4.7,3.9,8.6,8.6,8.6c3.8,0,7-2.5,8.1-5.8l16.2,23.6c0.2,4.6,4,8.2,8.6,8.2c4.4,0,8-3.3,8.5-7.5h7.3c0.5,4.2,4.1,7.5,8.5,7.5
	c4.6,0,8.4-3.7,8.6-8.2l16.2-23.6c1.2,3.4,4.3,5.8,8.1,5.8c4.7,0,8.6-3.9,8.6-8.6C162.3,74.6,158.4,70.8,153.7,70.8z M129.3,78.3
	c-0.5-4.2-4.1-7.5-8.5-7.5c-3.5,0-6.5,2.1-7.9,5.1l-3.2-9.3l3.4-9.5c1.4,2.9,4.3,4.9,7.7,4.9c3.8,0,7-2.5,8.1-5.8l15.2,22.2H129.3z
	 M127.3,79.4c0,3.6-2.9,6.4-6.4,6.4c-3.6,0-6.4-2.9-6.4-6.4c0-3.6,2.9-6.4,6.4-6.4C124.4,72.9,127.3,75.8,127.3,79.4z M111.8,80.5
	l-3.1,8.7l-3.1-8.7H111.8z M105.6,78.3l3-8.5l2.9,8.5H105.6z M108.6,63.3l-3.1-8.9h6.2L108.6,63.3z M107.4,66.6l-3.2,9.1
	c-1.4-2.9-4.3-4.9-7.7-4.9c-4.4,0-8,3.3-8.5,7.5H73.2l15.2-22.2c1.2,3.4,4.3,5.8,8.1,5.8c3.4,0,6.3-2,7.7-4.8L107.4,66.6z
	 M102.9,79.4c0,3.6-2.9,6.4-6.4,6.4s-6.4-2.9-6.4-6.4c0-3.6,2.9-6.4,6.4-6.4C100.1,72.9,102.9,75.8,102.9,79.4z M88,80.5
	c0.5,4.2,4.1,7.5,8.5,7.5c3.4,0,6.3-2,7.7-4.9l3.3,9.3l-3.3,9.3c-1.4-2.9-4.3-4.9-7.7-4.9c-3.8,0-7,2.5-8.1,5.8L73.2,80.5H88z
	 M108.7,95.6l3.1,8.7h-6.2L108.7,95.6z M109.8,92.4l3.3-9.3c1.4,2.9,4.3,4.9,7.7,4.9c4.4,0,8-3.3,8.5-7.5h14.8l-15.2,22.2
	c-1.2-3.4-4.3-5.8-8.1-5.8c-3.4,0-6.3,2-7.7,4.9L109.8,92.4z M120.8,46.9c3.6,0,6.4,2.9,6.4,6.4s-2.9,6.4-6.4,6.4
	c-3.6,0-6.4-2.9-6.4-6.4S117.3,46.9,120.8,46.9z M96.5,46.9c3.6,0,6.4,2.9,6.4,6.4s-2.9,6.4-6.4,6.4s-6.4-2.9-6.4-6.4
	S92.9,46.9,96.5,46.9z M63.6,85.8c-3.6,0-6.4-2.9-6.4-6.4c0-3.6,2.9-6.4,6.4-6.4s6.4,2.9,6.4,6.4S67.2,85.8,63.6,85.8z M96.5,111.8
	c-3.6,0-6.4-2.9-6.4-6.4c0-3.6,2.9-6.4,6.4-6.4c3.6,0,6.4,2.9,6.4,6.4C102.9,108.9,100.1,111.8,96.5,111.8z M120.8,111.8
	c-3.6,0-6.4-2.9-6.4-6.4c0-3.6,2.9-6.4,6.4-6.4c3.6,0,6.4,2.9,6.4,6.4C127.3,108.9,124.4,111.8,120.8,111.8z M153.7,85.8
	c-3.6,0-6.4-2.9-6.4-6.4c0-3.6,2.9-6.4,6.4-6.4c3.6,0,6.4,2.9,6.4,6.4S157.2,85.8,153.7,85.8z"/>
</svg>
