<?xml version="1.0" encoding="utf-8"?>
<!-- Generator: Adobe Illustrator 26.0.3, SVG Export Plug-In . SVG Version: 6.00 Build 0)  -->
<svg version="1.1" id="Layer_1" xmlns="http://www.w3.org/2000/svg" xmlns:xlink="http://www.w3.org/1999/xlink" x="0px" y="0px"
	 viewBox="0 0 407.2 192.8" style="enable-background:new 0 0 407.2 192.8;" xml:space="preserve">
<style type="text/css">
	.st0{fill:#EBE9E9;}
	.st1{fill:#272836;}
	.st2{fill:#CC4D40;}
	.st3{fill:url(#SVGID_1_);}
	.st4{fill:url(#SVGID_00000158747389314936339250000006258988887634740869_);}
</style>
<rect class="st0" width="407.2" height="192.8"/>
<g>
	<path class="st1" d="M48.8,158.8v-8h2.8l1.9,5.8l1.9-5.8h2.8v8h-1.8v-6.4l-2.1,6.4h-1.5l-2.1-6.4v6.4H48.8z"/>
	<path class="st1" d="M59.4,158.8l3.1-8h1.9l3.1,8h-1.9l-0.5-1.4h-3.3l-0.5,1.4H59.4z M62.3,155.9h2.4l-1.2-3.3L62.3,155.9z"/>
	<path class="st1" d="M72.3,158.9c-0.9,0-1.6-0.2-2.2-0.5c-0.6-0.4-1.1-0.8-1.5-1.5c-0.3-0.6-0.5-1.3-0.5-2.1s0.2-1.5,0.5-2.1
		s0.8-1.1,1.5-1.5c0.6-0.4,1.4-0.5,2.2-0.5c0.5,0,1,0.1,1.5,0.2c0.5,0.1,0.9,0.4,1.4,0.7l-0.6,1.3c-0.4-0.2-0.8-0.4-1.1-0.5
		c-0.4-0.1-0.7-0.2-1.1-0.2c-0.5,0-0.9,0.1-1.3,0.3s-0.7,0.5-0.9,0.9s-0.3,0.8-0.3,1.4c0,0.5,0.1,1,0.3,1.4c0.2,0.4,0.5,0.7,0.9,0.9
		s0.8,0.3,1.3,0.3c0.4,0,0.8-0.1,1.1-0.2c0.4-0.1,0.7-0.3,1.1-0.5l0.6,1.3c-0.4,0.3-0.9,0.5-1.4,0.7
		C73.3,158.8,72.8,158.9,72.3,158.9z"/>
	<path class="st1" d="M76.5,158.8v-8h1.8v3.1h3.5v-3.1h1.8v8h-1.8v-3.4h-3.5v3.4H76.5z"/>
	<path class="st1" d="M85.6,158.8v-8h1.8v8H85.6z"/>
	<path class="st1" d="M89.3,158.8v-8h1.9l3.4,5.4v-5.4h1.8v8h-1.9l-3.4-5.4v5.4H89.3z"/>
	<path class="st1" d="M98.3,158.8v-8h5.8v1.5H100v1.7h3.7v1.4H100v2h4.1v1.5L98.3,158.8L98.3,158.8z"/>
	<path class="st1" d="M108.9,158.8v-8h1.8v6.5h3.5v1.5H108.9z"/>
	<path class="st1" d="M115.5,158.8v-8h5.8v1.5h-4.1v1.7h3.7v1.4h-3.7v2h4.1v1.5L115.5,158.8L115.5,158.8z"/>
	<path class="st1" d="M122.4,158.8l3.1-8h1.9l3.1,8h-1.9l-0.5-1.4h-3.3l-0.5,1.4H122.4z M125.3,155.9h2.4l-1.2-3.3L125.3,155.9z"/>
	<path class="st1" d="M131.8,158.8v-8h3.4c1,0,1.8,0.2,2.3,0.6s0.8,1,0.8,1.9c0,0.7-0.2,1.2-0.5,1.6s-0.8,0.6-1.4,0.8l2.3,3.2h-2.1
		l-2.1-3h-1v3h-1.7V158.8z M133.6,154.4h1.4c0.6,0,1-0.1,1.2-0.3s0.4-0.5,0.4-0.8c0-0.4-0.1-0.7-0.4-0.8c-0.2-0.2-0.7-0.3-1.2-0.3
		h-1.4V154.4z"/>
	<path class="st1" d="M140,158.8v-8h1.9l3.4,5.4v-5.4h1.8v8h-1.9l-3.4-5.4v5.4H140z"/>
	<path class="st1" d="M149,158.8v-8h1.8v8H149z"/>
	<path class="st1" d="M152.7,158.8v-8h1.9l3.4,5.4v-5.4h1.8v8h-1.9l-3.4-5.4v5.4H152.7z"/>
	<path class="st1" d="M165.6,158.9c-0.9,0-1.6-0.2-2.2-0.5c-0.6-0.4-1.1-0.8-1.5-1.5c-0.3-0.6-0.5-1.3-0.5-2.1s0.2-1.5,0.5-2.1
		s0.8-1.1,1.5-1.5c0.6-0.4,1.4-0.5,2.2-0.5c0.5,0,1.1,0.1,1.6,0.2c0.5,0.1,1,0.4,1.4,0.7l-0.6,1.3c-0.4-0.2-0.8-0.4-1.2-0.5
		s-0.8-0.2-1.2-0.2c-0.5,0-0.9,0.1-1.3,0.3s-0.7,0.5-0.9,0.9s-0.3,0.8-0.3,1.4c0,0.5,0.1,1,0.3,1.4s0.5,0.7,0.9,0.9s0.8,0.3,1.3,0.3
		c0.4,0,0.7-0.1,1-0.2c0.3-0.1,0.6-0.3,0.8-0.5v-1.1h-1.9v-1.4h3.6v3c-0.4,0.5-0.8,0.9-1.4,1.2C167.1,158.8,166.4,158.9,165.6,158.9
		z"/>
</g>
<g>
	<path class="st1" d="M259,158.8v-8h1.8v8H259z"/>
	<path class="st1" d="M262.8,158.8v-8h1.9l3.4,5.4v-5.4h1.8v8H268l-3.4-5.4v5.4H262.8z"/>
	<path class="st1" d="M277.2,158.8l-3.1-8h1.9l2.1,6l2.1-6h2l-3.1,8H277.2z"/>
	<path class="st1" d="M283.5,158.8v-8h1.8v8H283.5z"/>
	<path class="st1" d="M289,158.8v-6.5h-2.3v-1.5h6.4v1.5h-2.3v6.5H289z"/>
	<path class="st1" d="M294.4,158.8v-8h3.4c1,0,1.8,0.2,2.3,0.6c0.5,0.4,0.8,1,0.8,1.9c0,0.7-0.2,1.2-0.5,1.6s-0.8,0.6-1.4,0.8
		l2.3,3.2h-2.1l-2.1-3h-1v3h-1.7V158.8z M296.2,154.4h1.4c0.6,0,1-0.1,1.2-0.3s0.4-0.5,0.4-0.8c0-0.4-0.1-0.7-0.4-0.8
		c-0.2-0.2-0.7-0.3-1.2-0.3h-1.4V154.4z"/>
	<path class="st1" d="M306.3,158.9c-0.9,0-1.6-0.2-2.2-0.5c-0.6-0.4-1.1-0.8-1.5-1.5s-0.5-1.3-0.5-2.1s0.2-1.5,0.5-2.1
		s0.8-1.1,1.5-1.5c0.6-0.4,1.4-0.5,2.2-0.5c0.9,0,1.6,0.2,2.2,0.5c0.6,0.4,1.1,0.8,1.5,1.5s0.5,1.3,0.5,2.1s-0.2,1.5-0.5,2.1
		s-0.8,1.1-1.5,1.5C307.9,158.7,307.2,158.9,306.3,158.9z M306.3,157.4c0.5,0,0.9-0.1,1.3-0.3s0.7-0.5,0.9-0.9
		c0.2-0.4,0.3-0.8,0.3-1.4c0-0.5-0.1-1-0.3-1.4s-0.5-0.7-0.9-0.9s-0.8-0.3-1.3-0.3s-0.9,0.1-1.3,0.3s-0.7,0.5-0.9,0.9
		s-0.3,0.8-0.3,1.4c0,0.5,0.1,1,0.3,1.4c0.2,0.4,0.5,0.7,0.9,0.9C305.4,157.3,305.8,157.4,306.3,157.4z"/>
	<path class="st1" d="M314.5,158.8l3.1-8h1.9l3.1,8h-1.9l-0.5-1.4h-3.3l-0.5,1.4H314.5z M317.4,155.9h2.4l-1.2-3.3L317.4,155.9z"/>
	<path class="st1" d="M326.6,158.9c-0.6,0-1.1-0.1-1.6-0.2c-0.5-0.2-1-0.4-1.4-0.8l0.6-1.3c0.4,0.3,0.9,0.5,1.3,0.7s0.8,0.2,1.1,0.2
		c0.5,0,0.8-0.1,1.1-0.3s0.4-0.4,0.4-0.7c0-0.2-0.1-0.4-0.2-0.6c-0.2-0.2-0.4-0.3-0.7-0.3l-1.1-0.2c-0.8-0.1-1.3-0.4-1.7-0.7
		c-0.3-0.4-0.5-0.8-0.5-1.3s0.1-0.9,0.3-1.3c0.2-0.4,0.5-0.7,1-0.9c0.4-0.2,1-0.4,1.7-0.4c0.5,0,0.9,0.1,1.4,0.2s0.9,0.3,1.4,0.7
		l-0.6,1.3c-0.4-0.2-0.8-0.4-1.1-0.5c-0.3-0.1-0.7-0.2-1-0.2c-0.4,0-0.7,0.1-0.9,0.2c-0.2,0.2-0.3,0.4-0.3,0.7
		c0,0.2,0.1,0.4,0.2,0.5c0.2,0.1,0.4,0.2,0.7,0.3l1.1,0.2c0.8,0.1,1.3,0.4,1.6,0.8s0.5,0.9,0.5,1.4c0,0.8-0.3,1.5-0.8,1.9
		C328.4,158.7,327.6,158.9,326.6,158.9z"/>
	<path class="st1" d="M333.9,158.9c-0.6,0-1.1-0.1-1.6-0.2c-0.5-0.2-1-0.4-1.4-0.8l0.6-1.3c0.4,0.3,0.9,0.5,1.3,0.7s0.8,0.2,1.1,0.2
		c0.5,0,0.8-0.1,1.1-0.3s0.4-0.4,0.4-0.7c0-0.2-0.1-0.4-0.2-0.6c-0.2-0.2-0.4-0.3-0.7-0.3l-1.1-0.2c-0.8-0.1-1.3-0.4-1.7-0.7
		c-0.3-0.4-0.5-0.8-0.5-1.3s0.1-0.9,0.3-1.3c0.2-0.4,0.5-0.7,1-0.9c0.4-0.2,1-0.4,1.7-0.4c0.5,0,0.9,0.1,1.4,0.2s0.9,0.3,1.4,0.7
		l-0.6,1.3c-0.4-0.2-0.8-0.4-1.1-0.5c-0.3-0.1-0.7-0.2-1-0.2c-0.4,0-0.7,0.1-0.9,0.2c-0.2,0.2-0.3,0.4-0.3,0.7
		c0,0.2,0.1,0.4,0.2,0.5c0.2,0.1,0.4,0.2,0.7,0.3l1.1,0.2c0.8,0.1,1.3,0.4,1.6,0.8s0.5,0.9,0.5,1.4c0,0.8-0.3,1.5-0.8,1.9
		C335.7,158.7,334.9,158.9,333.9,158.9z"/>
	<path class="st1" d="M337.8,158.8l3.1-8h1.9l3.1,8H344l-0.5-1.4h-3.3l-0.5,1.4H337.8z M340.7,155.9h2.4l-1.2-3.3L340.7,155.9z"/>
	<path class="st1" d="M348.7,158.8v-3l-3.1-5h2.1l1.9,3.3l1.9-3.3h2.1l-3.1,5v3H348.7z"/>
</g>
<g>
	<path class="st2" d="M199.9,92.6v-9.7h-9.5v-6.4h9.5v-9.7h6.8v9.7h9.5v6.4h-9.5v9.7H199.9z"/>
</g>
<linearGradient id="SVGID_1_" gradientUnits="userSpaceOnUse" x1="55.1" y1="79.4" x2="162.4" y2="79.4">
	<stop  offset="0" style="stop-color:#5984C1"/>
	<stop  offset="1" style="stop-color:#CC4D40"/>
</linearGradient>
<path class="st3" d="M153.7,70.8c-3.8,0-7,2.5-8.1,5.8L129.4,53c-0.2-4.6-4-8.2-8.6-8.2c-4.4,0-8,3.3-8.5,7.5H105
	c-0.5-4.2-4.1-7.5-8.5-7.5c-4.6,0-8.4,3.7-8.6,8.2L71.8,76.6c-1.2-3.4-4.3-5.8-8.1-5.8c-4.7,0-8.6,3.9-8.6,8.6S59,88,63.7,88
	c3.8,0,7-2.5,8.1-5.8L88,105.8c0.2,4.6,4,8.2,8.6,8.2c4.4,0,8-3.3,8.5-7.5h7.3c0.5,4.2,4.1,7.5,8.5,7.5c4.6,0,8.4-3.7,8.6-8.2
	l16.2-23.6c1.2,3.4,4.3,5.8,8.1,5.8c4.7,0,8.6-3.9,8.6-8.6C162.3,74.6,158.4,70.8,153.7,70.8z M129.3,78.3c-0.5-4.2-4.1-7.5-8.5-7.5
	c-3.5,0-6.5,2.1-7.9,5.1l-3.2-9.3l3.4-9.5c1.4,2.9,4.3,4.9,7.7,4.9c3.8,0,7-2.5,8.1-5.8l15.2,22.2L129.3,78.3L129.3,78.3z
	 M127.3,79.4c0,3.6-2.9,6.4-6.4,6.4c-3.6,0-6.4-2.9-6.4-6.4c0-3.6,2.9-6.4,6.4-6.4C124.4,72.9,127.3,75.8,127.3,79.4z M111.8,80.5
	l-3.1,8.7l-3.1-8.7H111.8z M105.6,78.3l3-8.5l2.9,8.5H105.6z M108.6,63.3l-3.1-8.9h6.2L108.6,63.3z M107.4,66.6l-3.2,9.1
	c-1.4-2.9-4.3-4.9-7.7-4.9c-4.4,0-8,3.3-8.5,7.5H73.2l15.2-22.2c1.2,3.4,4.3,5.8,8.1,5.8c3.4,0,6.3-2,7.7-4.8L107.4,66.6z
	 M102.9,79.4c0,3.6-2.9,6.4-6.4,6.4s-6.4-2.9-6.4-6.4c0-3.6,2.9-6.4,6.4-6.4C100.1,72.9,102.9,75.8,102.9,79.4z M88,80.5
	c0.5,4.2,4.1,7.5,8.5,7.5c3.4,0,6.3-2,7.7-4.9l3.3,9.3l-3.3,9.3c-1.4-2.9-4.3-4.9-7.7-4.9c-3.8,0-7,2.5-8.1,5.8L73.2,80.5H88z
	 M108.7,95.6l3.1,8.7h-6.2L108.7,95.6z M109.8,92.4l3.3-9.3c1.4,2.9,4.3,4.9,7.7,4.9c4.4,0,8-3.3,8.5-7.5h14.8l-15.2,22.2
	c-1.2-3.4-4.3-5.8-8.1-5.8c-3.4,0-6.3,2-7.7,4.9L109.8,92.4z M120.8,46.9c3.6,0,6.4,2.9,6.4,6.4s-2.9,6.4-6.4,6.4
	c-3.6,0-6.4-2.9-6.4-6.4S117.3,46.9,120.8,46.9z M96.5,46.9c3.6,0,6.4,2.9,6.4,6.4s-2.9,6.4-6.4,6.4s-6.4-2.9-6.4-6.4
	S92.9,46.9,96.5,46.9z M63.6,85.8c-3.6,0-6.4-2.9-6.4-6.4c0-3.6,2.9-6.4,6.4-6.4s6.4,2.9,6.4,6.4S67.2,85.8,63.6,85.8z M96.5,111.8
	c-3.6,0-6.4-2.9-6.4-6.4c0-3.6,2.9-6.4,6.4-6.4c3.6,0,6.4,2.9,6.4,6.4S100.1,111.8,96.5,111.8z M120.8,111.8c-3.6,0-6.4-2.9-6.4-6.4
	c0-3.6,2.9-6.4,6.4-6.4c3.6,0,6.4,2.9,6.4,6.4C127.3,108.9,124.4,111.8,120.8,111.8z M153.7,85.8c-3.6,0-6.4-2.9-6.4-6.4
	c0-3.6,2.9-6.4,6.4-6.4c3.6,0,6.4,2.9,6.4,6.4S157.2,85.8,153.7,85.8z"/>
<linearGradient id="SVGID_00000142891252168065337620000002603564187732648366_" gradientUnits="userSpaceOnUse" x1="260.7999" y1="79.6" x2="351.8001" y2="79.6">
	<stop  offset="0" style="stop-color:#CC4D40"/>
	<stop  offset="1" style="stop-color:#5984C1"/>
</linearGradient>
<path style="fill:url(#SVGID_00000142891252168065337620000002603564187732648366_);" d="M350.3,117.8h-81.9V34.6
	c0-0.6-0.5-1.1-1.1-1.1s-1.1,0.5-1.1,1.1v7.3h-4.3c-0.6,0-1.1,0.5-1.1,1.1s0.5,1.1,1.1,1.1h4.3v9.1h-4.3c-0.6,0-1.1,0.5-1.1,1.1
	s0.5,1.1,1.1,1.1h4.3v9.1h-4.3c-0.6,0-1.1,0.5-1.1,1.1s0.5,1.1,1.1,1.1h4.3v9.1h-4.3c-0.6,0-1.1,0.5-1.1,1.1s0.5,1.1,1.1,1.1h4.3
	v9.1h-4.3c-0.6,0-1.1,0.5-1.1,1.1s0.5,1.1,1.1,1.1h4.3v9.1h-4.3c-0.6,0-1.1,0.5-1.1,1.1s0.5,1.1,1.1,1.1h4.3v9.1h-4.3
	c-0.6,0-1.1,0.5-1.1,1.1s0.5,1.1,1.1,1.1h4.3v7.3c0,0.6,0.5,1.1,1.1,1.1h6.7v4.3c0,0.6,0.5,1.1,1.1,1.1s1.1-0.5,1.1-1.1v-4.3h9.1
	v4.3c0,0.6,0.5,1.1,1.1,1.1s1.1-0.5,1.1-1.1v-4.3h9.1v4.3c0,0.6,0.5,1.1,1.1,1.1s1.1-0.5,1.1-1.1v-4.3h9.1v4.3
	c0,0.6,0.5,1.1,1.1,1.1s1.1-0.5,1.1-1.1v-4.3h9.1v4.3c0,0.6,0.5,1.1,1.1,1.1s1.1-0.5,1.1-1.1v-4.3h9.1v4.3c0,0.6,0.5,1.1,1.1,1.1
	s1.1-0.5,1.1-1.1v-4.3h9.1v4.3c0,0.6,0.5,1.1,1.1,1.1s1.1-0.5,1.1-1.1v-4.3h6.7c0.6,0,1.1-0.5,1.1-1.1S350.9,117.8,350.3,117.8z
	 M273,89.9c0,2.2,1.8,4.1,4.1,4.1c2.2,0,4.1-1.8,4.1-4.1s-1.8-4.1-4.1-4.1C274.8,85.9,273,87.7,273,89.9z M277.1,88
	c1.1,0,1.9,0.9,1.9,1.9s-0.9,1.9-1.9,1.9c-1.1,0-1.9-0.9-1.9-1.9S276,88,277.1,88z M277.1,104.1c2.2,0,4.1-1.8,4.1-4.1
	c0-2.2-1.8-4.1-4.1-4.1c-2.2,0-4.1,1.8-4.1,4.1C273,102.3,274.8,104.1,277.1,104.1z M277.1,98.1c1.1,0,1.9,0.9,1.9,1.9
	c0,1.1-0.9,1.9-1.9,1.9c-1.1,0-1.9-0.9-1.9-1.9C275.1,99,276,98.1,277.1,98.1z M277.1,114.2c2.2,0,4.1-1.8,4.1-4.1
	c0-2.2-1.8-4.1-4.1-4.1c-2.2,0-4.1,1.8-4.1,4.1C273,112.3,274.8,114.2,277.1,114.2z M277.1,108.2c1.1,0,1.9,0.9,1.9,1.9
	c0,1.1-0.9,1.9-1.9,1.9c-1.1,0-1.9-0.9-1.9-1.9C275.1,109,276,108.2,277.1,108.2z M287,75.8c-2.2,0-4.1,1.8-4.1,4.1
	c0,2.2,1.8,4.1,4.1,4.1c2.2,0,4.1-1.8,4.1-4.1C291,77.6,289.2,75.8,287,75.8z M287,81.8c-1.1,0-1.9-0.9-1.9-1.9
	c0-1.1,0.9-1.9,1.9-1.9c1.1,0,1.9,0.9,1.9,1.9C288.9,80.9,288,81.8,287,81.8z M287,85.9c-2.2,0-4.1,1.8-4.1,4.1s1.8,4.1,4.1,4.1
	c2.2,0,4.1-1.8,4.1-4.1S289.2,85.9,287,85.9z M287,91.9c-1.1,0-1.9-0.9-1.9-1.9s0.9-1.9,1.9-1.9c1.1,0,1.9,0.9,1.9,1.9
	S288,91.9,287,91.9z M282.9,69.8c0,2.2,1.8,4.1,4.1,4.1c2.2,0,4.1-1.8,4.1-4.1c0-2.2-1.8-4.1-4.1-4.1
	C284.7,65.7,282.9,67.5,282.9,69.8z M287,67.9c1.1,0,1.9,0.9,1.9,1.9c0,1.1-0.9,1.9-1.9,1.9c-1.1,0-1.9-0.9-1.9-1.9
	C285,68.7,285.9,67.9,287,67.9z M287,96c-2.2,0-4.1,1.8-4.1,4.1c0,2.2,1.8,4.1,4.1,4.1c2.2,0,4.1-1.8,4.1-4.1
	C291,97.8,289.2,96,287,96z M287,101.9c-1.1,0-1.9-0.9-1.9-1.9c0-1.1,0.9-1.9,1.9-1.9c1.1,0,1.9,0.9,1.9,1.9
	C288.9,101.1,288,101.9,287,101.9z M287,106c-2.2,0-4.1,1.8-4.1,4.1c0,2.2,1.8,4.1,4.1,4.1c2.2,0,4.1-1.8,4.1-4.1
	C291,107.9,289.2,106,287,106z M287,112c-1.1,0-1.9-0.9-1.9-1.9c0-1.1,0.9-1.9,1.9-1.9c1.1,0,1.9,0.9,1.9,1.9
	C288.9,111.2,288,112,287,112z M292.8,79.9c0,2.2,1.8,4.1,4.1,4.1c2.2,0,4.1-1.8,4.1-4.1c0-2.2-1.8-4.1-4.1-4.1
	S292.8,77.6,292.8,79.9z M296.9,78c1.1,0,1.9,0.9,1.9,1.9c0,1.1-0.9,1.9-1.9,1.9c-1.1,0-1.9-0.9-1.9-1.9
	C294.9,78.8,295.8,78,296.9,78z M296.9,85.9c-2.2,0-4.1,1.8-4.1,4.1s1.8,4.1,4.1,4.1c2.2,0,4.1-1.8,4.1-4.1S299.1,85.9,296.9,85.9z
	 M296.9,91.9c-1.1,0-1.9-0.9-1.9-1.9s0.9-1.9,1.9-1.9c1.1,0,1.9,0.9,1.9,1.9S297.9,91.9,296.9,91.9z M296.9,96
	c-2.2,0-4.1,1.8-4.1,4.1c0,2.2,1.8,4.1,4.1,4.1c2.2,0,4.1-1.8,4.1-4.1C300.9,97.8,299.1,96,296.9,96z M296.9,101.9
	c-1.1,0-1.9-0.9-1.9-1.9c0-1.1,0.9-1.9,1.9-1.9c1.1,0,1.9,0.9,1.9,1.9C298.8,101.1,297.9,101.9,296.9,101.9z M296.9,106
	c-2.2,0-4.1,1.8-4.1,4.1c0,2.2,1.8,4.1,4.1,4.1c2.2,0,4.1-1.8,4.1-4.1C300.9,107.9,299.1,106,296.9,106z M296.9,112
	c-1.1,0-1.9-0.9-1.9-1.9c0-1.1,0.9-1.9,1.9-1.9c1.1,0,1.9,0.9,1.9,1.9C298.8,111.2,297.9,112,296.9,112z M302.7,89.9
	c0,2.2,1.8,4.1,4.1,4.1c2.2,0,4.1-1.8,4.1-4.1s-1.8-4.1-4.1-4.1C304.5,85.9,302.7,87.7,302.7,89.9z M306.8,88c1.1,0,1.9,0.9,1.9,1.9
	s-0.9,1.9-1.9,1.9c-1.1,0-1.9-0.9-1.9-1.9S305.7,88,306.8,88z M306.8,96c-2.2,0-4.1,1.8-4.1,4.1c0,2.2,1.8,4.1,4.1,4.1
	c2.2,0,4.1-1.8,4.1-4.1C310.8,97.8,309,96,306.8,96z M306.8,101.9c-1.1,0-1.9-0.9-1.9-1.9c0-1.1,0.9-1.9,1.9-1.9
	c1.1,0,1.9,0.9,1.9,1.9C308.7,101.1,307.8,101.9,306.8,101.9z M306.8,106c-2.2,0-4.1,1.8-4.1,4.1c0,2.2,1.8,4.1,4.1,4.1
	c2.2,0,4.1-1.8,4.1-4.1C310.8,107.9,309,106,306.8,106z M306.8,112c-1.1,0-1.9-0.9-1.9-1.9c0-1.1,0.9-1.9,1.9-1.9
	c1.1,0,1.9,0.9,1.9,1.9C308.7,111.2,307.8,112,306.8,112z M312.6,79.9c0,2.2,1.8,4.1,4.1,4.1c2.2,0,4.1-1.8,4.1-4.1
	c0-2.2-1.8-4.1-4.1-4.1C314.4,75.8,312.6,77.6,312.6,79.9z M316.7,78c1.1,0,1.9,0.9,1.9,1.9c0,1.1-0.9,1.9-1.9,1.9
	c-1.1,0-1.9-0.9-1.9-1.9C314.7,78.8,315.6,78,316.7,78z M316.7,85.9c-2.2,0-4.1,1.8-4.1,4.1s1.8,4.1,4.1,4.1c2.2,0,4.1-1.8,4.1-4.1
	S318.9,85.9,316.7,85.9z M316.7,91.9c-1.1,0-1.9-0.9-1.9-1.9s0.9-1.9,1.9-1.9c1.1,0,1.9,0.9,1.9,1.9S317.7,91.9,316.7,91.9z
	 M316.7,96c-2.2,0-4.1,1.8-4.1,4.1c0,2.2,1.8,4.1,4.1,4.1c2.2,0,4.1-1.8,4.1-4.1C320.7,97.8,318.9,96,316.7,96z M316.7,101.9
	c-1.1,0-1.9-0.9-1.9-1.9c0-1.1,0.9-1.9,1.9-1.9c1.1,0,1.9,0.9,1.9,1.9C318.6,101.1,317.7,101.9,316.7,101.9z M316.7,106
	c-2.2,0-4.1,1.8-4.1,4.1c0,2.2,1.8,4.1,4.1,4.1c2.2,0,4.1-1.8,4.1-4.1C320.7,107.9,318.9,106,316.7,106z M316.7,112
	c-1.1,0-1.9-0.9-1.9-1.9c0-1.1,0.9-1.9,1.9-1.9c1.1,0,1.9,0.9,1.9,1.9C318.6,111.2,317.7,112,316.7,112z M326.6,75.8
	c-2.2,0-4.1,1.8-4.1,4.1c0,2.2,1.8,4.1,4.1,4.1c2.2,0,4.1-1.8,4.1-4.1C330.6,77.6,328.8,75.8,326.6,75.8z M326.6,81.8
	c-1.1,0-1.9-0.9-1.9-1.9c0-1.1,0.9-1.9,1.9-1.9c1.1,0,1.9,0.9,1.9,1.9S327.6,81.8,326.6,81.8z M326.6,85.9c-2.2,0-4.1,1.8-4.1,4.1
	s1.8,4.1,4.1,4.1c2.2,0,4.1-1.8,4.1-4.1S328.8,85.9,326.6,85.9z M326.6,91.9c-1.1,0-1.9-0.9-1.9-1.9s0.9-1.9,1.9-1.9
	c1.1,0,1.9,0.9,1.9,1.9S327.6,91.9,326.6,91.9z M322.5,69.8c0,2.2,1.8,4.1,4.1,4.1c2.2,0,4.1-1.8,4.1-4.1c0-2.2-1.8-4.1-4.1-4.1
	C324.3,65.7,322.5,67.5,322.5,69.8z M326.6,67.9c1.1,0,1.9,0.9,1.9,1.9c0,1.1-0.9,1.9-1.9,1.9c-1.1,0-1.9-0.9-1.9-1.9
	C324.6,68.7,325.5,67.9,326.6,67.9z M326.6,96c-2.2,0-4.1,1.8-4.1,4.1c0,2.2,1.8,4.1,4.1,4.1c2.2,0,4.1-1.8,4.1-4.1
	C330.6,97.8,328.8,96,326.6,96z M326.6,101.9c-1.1,0-1.9-0.9-1.9-1.9c0-1.1,0.9-1.9,1.9-1.9c1.1,0,1.9,0.9,1.9,1.9
	C328.5,101.1,327.6,101.9,326.6,101.9z M326.6,106c-2.2,0-4.1,1.8-4.1,4.1c0,2.2,1.8,4.1,4.1,4.1c2.2,0,4.1-1.8,4.1-4.1
	C330.6,107.9,328.8,106,326.6,106z M326.6,112c-1.1,0-1.9-0.9-1.9-1.9c0-1.1,0.9-1.9,1.9-1.9c1.1,0,1.9,0.9,1.9,1.9
	C328.5,111.2,327.6,112,326.6,112z M336.5,75.8c-2.2,0-4.1,1.8-4.1,4.1c0,2.2,1.8,4.1,4.1,4.1s4.1-1.8,4.1-4.1
	C340.5,77.6,338.7,75.8,336.5,75.8z M336.5,81.8c-1.1,0-1.9-0.9-1.9-1.9c0-1.1,0.9-1.9,1.9-1.9s1.9,0.9,1.9,1.9
	C338.4,80.9,337.5,81.8,336.5,81.8z M336.5,85.9c-2.2,0-4.1,1.8-4.1,4.1s1.8,4.1,4.1,4.1s4.1-1.8,4.1-4.1S338.7,85.9,336.5,85.9z
	 M336.5,91.9c-1.1,0-1.9-0.9-1.9-1.9s0.9-1.9,1.9-1.9s1.9,0.9,1.9,1.9S337.5,91.9,336.5,91.9z M336.5,65.7c-2.2,0-4.1,1.8-4.1,4.1
	c0,2.2,1.8,4.1,4.1,4.1s4.1-1.8,4.1-4.1C340.5,67.5,338.7,65.7,336.5,65.7z M336.5,71.7c-1.1,0-1.9-0.9-1.9-1.9
	c0-1.1,0.9-1.9,1.9-1.9s1.9,0.9,1.9,1.9C338.4,70.8,337.5,71.7,336.5,71.7z M332.4,59.7c0,2.2,1.8,4.1,4.1,4.1
	c2.2,0,4.1-1.8,4.1-4.1s-1.8-4.1-4.1-4.1C334.2,55.6,332.4,57.5,332.4,59.7z M336.5,57.8c1.1,0,1.9,0.9,1.9,1.9s-0.9,1.9-1.9,1.9
	s-1.9-0.9-1.9-1.9S335.4,57.8,336.5,57.8z M336.5,96c-2.2,0-4.1,1.8-4.1,4.1c0,2.2,1.8,4.1,4.1,4.1s4.1-1.8,4.1-4.1
	C340.5,97.8,338.7,96,336.5,96z M336.5,101.9c-1.1,0-1.9-0.9-1.9-1.9c0-1.1,0.9-1.9,1.9-1.9s1.9,0.9,1.9,1.9
	C338.4,101.1,337.5,101.9,336.5,101.9z M336.5,106c-2.2,0-4.1,1.8-4.1,4.1c0,2.2,1.8,4.1,4.1,4.1s4.1-1.8,4.1-4.1
	C340.5,107.9,338.7,106,336.5,106z M336.5,112c-1.1,0-1.9-0.9-1.9-1.9c0-1.1,0.9-1.9,1.9-1.9s1.9,0.9,1.9,1.9
	C338.4,111.2,337.5,112,336.5,112z M342.3,79.9c0,2.2,1.8,4.1,4.1,4.1s4.1-1.8,4.1-4.1c0-2.2-1.8-4.1-4.1-4.1S342.3,77.6,342.3,79.9
	z M346.3,78c1.1,0,1.9,0.9,1.9,1.9c0,1.1-0.9,1.9-1.9,1.9s-1.9-0.9-1.9-1.9C344.4,78.8,345.3,78,346.3,78z M346.3,85.9
	c-2.2,0-4.1,1.8-4.1,4.1s1.8,4.1,4.1,4.1s4.1-1.8,4.1-4.1S348.6,85.9,346.3,85.9z M346.3,91.9c-1.1,0-1.9-0.9-1.9-1.9
	s0.9-1.9,1.9-1.9s1.9,0.9,1.9,1.9S347.4,91.9,346.3,91.9z M346.3,96c-2.2,0-4.1,1.8-4.1,4.1c0,2.2,1.8,4.1,4.1,4.1s4.1-1.8,4.1-4.1
	S348.6,96,346.3,96z M346.3,101.9c-1.1,0-1.9-0.9-1.9-1.9c0-1.1,0.9-1.9,1.9-1.9s1.9,0.9,1.9,1.9
	C348.3,101.1,347.4,101.9,346.3,101.9z M346.3,106c-2.2,0-4.1,1.8-4.1,4.1c0,2.2,1.8,4.1,4.1,4.1s4.1-1.8,4.1-4.1
	C350.4,107.9,348.6,106,346.3,106z M346.3,112c-1.1,0-1.9-0.9-1.9-1.9c0-1.1,0.9-1.9,1.9-1.9s1.9,0.9,1.9,1.9
	C348.3,111.2,347.4,112,346.3,112z M277.5,72l0.7-1.2c0.2-0.3,0.1-0.6-0.2-0.7c-0.3-0.2-0.6-0.1-0.7,0.2l-0.7,1.2
	c-0.2,0.3-0.1,0.6,0.2,0.7C277.1,72.3,277.4,72.2,277.5,72z M279.9,67.9l1.7-2.8c0.2-0.3,0.1-0.6-0.2-0.7c-0.3-0.2-0.6-0.1-0.7,0.2
	l-1.7,2.8c-0.2,0.3-0.1,0.6,0.2,0.7C279.4,68.2,279.8,68.1,279.9,67.9z M284.8,58.6c-0.3-0.1-0.6-0.1-0.7,0.2l-1.7,2.8
	c-0.2,0.3-0.1,0.6,0.2,0.7c0.3,0.1,0.6,0.1,0.7-0.2l1.7-2.8C285.1,59.1,285,58.8,284.8,58.6z M286.6,56.5l0.3-0.5l0.4,0.5
	c0.2,0.2,0.5,0.3,0.8,0.1c0.2-0.2,0.3-0.5,0.1-0.8l-0.9-1.1c-0.1-0.1-0.3-0.2-0.5-0.2s-0.3,0.1-0.4,0.3l-0.7,1.2
	c-0.2,0.3-0.1,0.6,0.2,0.7C286.1,56.8,286.5,56.8,286.6,56.5z M296.6,68.8l1.6,1.1c0.2,0.2,0.6,0.1,0.7-0.1c0.2-0.2,0.1-0.6-0.1-0.7
	l-1.6-1.1l-0.5-0.6c-0.2-0.2-0.5-0.3-0.8-0.1c-0.2,0.2-0.3,0.5-0.1,0.8l0.5,0.7C296.5,68.7,296.5,68.8,296.6,68.8z M301.2,70.7
	c-0.2-0.2-0.6-0.1-0.7,0.1s-0.1,0.6,0.1,0.7l2.4,1.6c0.2,0.2,0.6,0.1,0.7-0.1c0.2-0.2,0.1-0.6-0.1-0.7L301.2,70.7z M293.3,62.7
	c-0.2-0.2-0.5-0.3-0.8-0.1c-0.2,0.2-0.3,0.5-0.1,0.8l1.7,2.3c0.2,0.2,0.5,0.3,0.8,0.1c0.2-0.2,0.3-0.5,0.1-0.8L293.3,62.7z
	 M291.5,61.2c0.2-0.2,0.3-0.5,0.1-0.8l-1.7-2.3c-0.2-0.2-0.5-0.3-0.8-0.1c-0.2,0.2-0.3,0.5-0.1,0.8l1.7,2.3
	C290.9,61.3,291.3,61.4,291.5,61.2z M307,75.7l1.2-0.7c0.3-0.2,0.3-0.5,0.2-0.7c-0.2-0.3-0.5-0.3-0.7-0.2l-0.9,0.6l-0.9-0.6
	c-0.2-0.2-0.6-0.1-0.7,0.1c-0.2,0.2-0.1,0.6,0.1,0.7c1.2,0.8,1.2,0.9,1.5,0.9C306.9,75.8,306.9,75.8,307,75.7z M312.7,71l-2.5,1.5
	c-0.3,0.2-0.3,0.5-0.2,0.7c0.2,0.3,0.5,0.3,0.7,0.2l2.5-1.5c0.3-0.2,0.3-0.5,0.2-0.7C313.3,70.9,313,70.9,312.7,71z M315.8,70.4
	l1-0.6c0.1,0,0.1-0.1,0.2-0.1l1.1-1.4c0.2-0.2,0.1-0.6-0.1-0.8c-0.2-0.2-0.6-0.1-0.8,0.1l-1,1.4l-0.9,0.6c-0.3,0.2-0.3,0.5-0.2,0.7
	C315.2,70.5,315.6,70.5,315.8,70.4z M319.8,65.8l1.7-2.4c0.2-0.2,0.1-0.6-0.1-0.8s-0.6-0.1-0.8,0.1l-1.7,2.4
	c-0.2,0.2-0.1,0.6,0.1,0.8c0.1,0.1,0.2,0.1,0.3,0.1C319.5,66,319.7,66,319.8,65.8z M332.7,49.8l-2.3,1.9c-0.2,0.2-0.3,0.5-0.1,0.8
	c0.2,0.2,0.5,0.3,0.8,0.1l2.3-1.9c0.2-0.2,0.3-0.5,0.1-0.8C333.3,49.7,333,49.6,332.7,49.8z M326.7,56.3l2.1-1.8
	c0.2-0.2,0.3-0.5,0.1-0.8c-0.2-0.2-0.5-0.3-0.8-0.1l-2.2,1.8l-0.2,0.2c-0.2,0.2-0.1,0.6,0.1,0.8C326.2,56.6,326.6,56.5,326.7,56.3z
	 M324.1,58l-1.7,2.4c-0.2,0.2-0.1,0.6,0.1,0.8s0.6,0.1,0.8-0.1l1.7-2.4c0.2-0.2,0.1-0.6-0.1-0.8C324.6,57.7,324.3,57.8,324.1,58z
	 M335.7,48.8l0.7-0.6l0.5,0.7c0.2,0.2,0.5,0.3,0.8,0.1c0.2-0.2,0.3-0.5,0.1-0.8l-0.9-1.1c-0.1-0.1-0.2-0.2-0.4-0.2
	c-0.2,0-0.3,0-0.4,0.1l-1.1,0.9c-0.2,0.2-0.3,0.5-0.1,0.8C335.1,48.9,335.5,49,335.7,48.8z M342.6,54.6c-0.2-0.2-0.5-0.3-0.8-0.1
	c-0.2,0.2-0.3,0.5-0.1,0.8l1.6,2.1c0.2,0.2,0.5,0.3,0.8,0.1c0.2-0.2,0.3-0.5,0.1-0.8L342.6,54.6z M340.9,53.2
	c0.2-0.2,0.3-0.5,0.1-0.8l-1.6-2.1c-0.2-0.2-0.5-0.3-0.8-0.1c-0.2,0.2-0.3,0.5-0.1,0.8l1.6,2.1C340.3,53.4,340.7,53.4,340.9,53.2z
	 M346.7,60.7c0.2-0.2,0.3-0.5,0.1-0.8l-0.9-1.1c-0.2-0.2-0.5-0.3-0.8-0.1c-0.2,0.2-0.3,0.5-0.1,0.8l0.9,1.1
	C346.1,60.9,346.4,60.9,346.7,60.7z"/>
</svg>
