<?xml version="1.0" encoding="utf-8"?>
<!-- Generator: Adobe Illustrator 26.0.3, SVG Export Plug-In . SVG Version: 6.00 Build 0)  -->
<svg version="1.1" id="Layer_1" xmlns="http://www.w3.org/2000/svg" xmlns:xlink="http://www.w3.org/1999/xlink" x="0px" y="0px"
	 viewBox="0 0 493.7 132.3" style="enable-background:new 0 0 493.7 132.3;" xml:space="preserve">
<style type="text/css">
	.st0{fill:#C9C361;}
	.st1{fill:#CC4D40;}
	.st2{fill:#5984C1;}
	.st3{fill:#FFFFFF;}
</style>
<g>
	<g>
		<circle class="st0" cx="55.7" cy="66.2" r="55.2"/>
		<rect x="52.5" y="56.2" transform="matrix(0.7579 -0.6524 0.6524 0.7579 -20.9059 57.3763)" width="28.7" height="1.2"/>
		<rect x="51.1" y="35.8" transform="matrix(0.9615 -0.2749 0.2749 0.9615 -12.1099 16.1877)" width="1.2" height="31.1"/>
		<rect x="62.6" y="63.8" transform="matrix(0.8052 -0.593 0.593 0.8052 -32.8268 52.3459)" width="1.2" height="24.6"/>
		<rect x="75.5" y="49.7" transform="matrix(0.1973 -0.9804 0.9804 0.1973 -7.7817 131.0734)" width="1.2" height="41.2"/>
		<rect x="31.7" y="81.3" transform="matrix(0.4093 -0.9124 0.9124 0.4093 -45.8778 93.0296)" width="34.5" height="1.2"/>
		<rect x="17.5" y="70.4" transform="matrix(0.969 -0.2471 0.2471 0.969 -16.4063 11.3603)" width="39" height="1.2"/>
		<g>
			<circle class="st1" cx="56" cy="66.2" r="8.5"/>
			<circle class="st1" cx="70.6" cy="86" r="6.1"/>
			<circle class="st1" cx="77.7" cy="47.5" r="6.1"/>
			<circle class="st1" cx="18.1" cy="75.8" r="5.6"/>
			<circle class="st2" cx="47.4" cy="36.4" r="7.3"/>
			<circle class="st2" cx="41.9" cy="97.7" r="5.6"/>
			<circle class="st2" cx="96.3" cy="74.4" r="6.2"/>
		</g>
	</g>
	<g>
		<path class="st3" d="M215.1,110.2h-17.4l-7.6-16.4h-39.8l-7.7,16.4h-17.4l38.7-82h12.4L215.1,110.2z M183.9,80.7l-13.6-29.5
			l-13.8,29.5H183.9z"/>
		<path class="st3" d="M275.7,101.4c-3.1,3.5-6.7,6.1-10.9,7.8c-4.2,1.7-8.6,2.6-13.3,2.6c-4.3,0-8.4-0.8-12.2-2.4
			c-3.8-1.6-7.1-3.7-10-6.5c-2.8-2.8-5-6.1-6.7-9.9c-1.6-3.8-2.4-7.9-2.4-12.4c0-4.4,0.8-8.4,2.4-12.2c1.6-3.8,3.8-7.1,6.6-9.9
			c2.8-2.8,6.1-5,9.9-6.6c3.8-1.6,7.9-2.4,12.3-2.4c4.5,0,8.8,0.8,12.8,2.4c4,1.6,7.6,4.1,10.7,7.4l-9.9,10.1
			c-1.5-2-3.3-3.6-5.5-4.9c-2.2-1.3-4.8-1.9-7.8-1.9c-2.3,0-4.4,0.5-6.4,1.4c-2,1-3.8,2.2-5.3,3.9s-2.8,3.5-3.6,5.7
			c-0.9,2.2-1.3,4.5-1.3,7c0,2.5,0.4,4.8,1.3,7c0.9,2.2,2.1,4.1,3.6,5.7c1.5,1.6,3.3,2.9,5.3,3.9c2,1,4.2,1.4,6.5,1.4
			c2.9,0,5.6-0.7,8-2.1c2.4-1.4,4.3-3.2,5.7-5.4L275.7,101.4z"/>
		<path class="st3" d="M345.2,80.5c0,1-0.1,1.9-0.2,3c-0.1,1-0.2,2.1-0.4,3.2h-47.4c1.2,3.5,3.2,6.4,6,8.9c2.8,2.4,6.4,3.6,10.8,3.6
			c2.7,0,5.3-0.5,8-1.4c2.7-0.9,4.9-2.2,6.7-3.7l9.3,9.3c-4.1,3.1-8.1,5.2-12,6.5c-3.9,1.3-8.1,1.9-12.5,1.9
			c-4.4,0-8.6-0.8-12.5-2.5c-3.9-1.6-7.2-3.9-10-6.7c-2.8-2.8-5.1-6.1-6.7-9.9c-1.6-3.8-2.5-7.8-2.5-12.1c0-4.3,0.8-8.4,2.5-12.1
			c1.6-3.8,3.9-7.1,6.8-9.9c2.9-2.8,6.2-5,10-6.7c3.8-1.6,7.9-2.5,12.3-2.5c4.2,0,8.2,0.8,12,2.3c3.8,1.5,7.2,3.7,10.1,6.4
			c2.9,2.7,5.3,6,7,9.8C344.4,71.8,345.2,75.9,345.2,80.5z M329.7,74.8c-1.2-3.8-3.2-6.8-6.2-9.1c-3-2.3-6.3-3.4-10.1-3.4
			c-3.7,0-7,1.1-9.9,3.4c-2.9,2.3-5,5.3-6.2,9.1H329.7z"/>
		<path class="st3" d="M380.5,109.9c-1.2,0.5-2.5,1-3.9,1.3c-1.5,0.3-3,0.5-4.6,0.5c-2.2,0-4.3-0.3-6.3-0.9c-2-0.6-3.8-1.5-5.3-2.8
			c-1.5-1.3-2.7-3-3.6-5c-0.9-2-1.3-4.6-1.3-7.6V25.2h15.1v67.7c0,2.5,0.5,4.2,1.5,5.1c1,0.9,2.2,1.4,3.5,1.4c1.7,0,3.3-0.5,4.9-1.5
			V109.9z"/>
		<path class="st3" d="M449.9,80.6c0,4.4-0.8,8.6-2.5,12.4s-3.9,7.1-6.8,9.8c-2.9,2.8-6.2,5-10.1,6.6c-3.9,1.6-8,2.4-12.4,2.4
			c-4.4,0-8.5-0.8-12.3-2.4c-3.8-1.6-7.2-3.8-10-6.6c-2.9-2.8-5.1-6.1-6.8-9.9c-1.6-3.8-2.5-7.9-2.5-12.2c0-4.3,0.8-8.4,2.5-12.1
			c1.7-3.8,3.9-7.1,6.8-9.9c2.9-2.8,6.2-5.1,10-6.7c3.8-1.6,7.9-2.4,12.2-2.4c4.4,0,8.5,0.8,12.4,2.4c3.9,1.6,7.2,3.8,10.1,6.6
			c2.9,2.8,5.1,6.1,6.8,9.9C449,72.2,449.9,76.3,449.9,80.6z M435.1,80.6c0-2.5-0.4-4.9-1.3-7.1c-0.9-2.2-2.1-4.1-3.6-5.7
			c-1.5-1.6-3.3-2.9-5.4-3.8c-2-0.9-4.2-1.4-6.5-1.4c-2.3,0-4.5,0.5-6.5,1.4c-2,0.9-3.8,2.2-5.4,3.8c-1.5,1.6-2.7,3.6-3.6,5.7
			c-0.9,2.2-1.3,4.5-1.3,7.1c0,2.5,0.4,4.9,1.3,7.1c0.9,2.2,2.1,4.1,3.6,5.7c1.5,1.6,3.3,2.9,5.4,3.8c2,0.9,4.2,1.4,6.5,1.4
			c2.3,0,4.5-0.5,6.5-1.4c2-0.9,3.8-2.2,5.4-3.8c1.5-1.6,2.7-3.6,3.6-5.7C434.7,85.5,435.1,83.2,435.1,80.6z"/>
		<path class="st3" d="M493.1,108.9c-1.5,0.9-3.2,1.7-5.2,2.1c-2,0.5-4,0.7-5.9,0.7c-3.5,0-6.4-0.4-8.8-1.3
			c-2.4-0.9-4.3-2.2-5.7-3.9c-1.4-1.8-2.5-4-3.1-6.8c-0.7-2.7-1-5.9-1-9.6V64.2h-7.8v-5.6c4.8-2.4,8.8-5.7,12.1-9.9
			c3.3-4.2,5.3-9.3,6.1-15.1h4.3v17.3h15v13.3h-15v27c0,3,0.6,5,1.9,6c1.3,1,2.9,1.4,4.7,1.4c1.2,0,2.6-0.2,4.2-0.6
			c1.6-0.4,3-1.1,4.2-2V108.9z"/>
	</g>
</g>
</svg>
