<?xml version="1.0" encoding="utf-8"?>
<!-- Generator: Adobe Illustrator 26.0.3, SVG Export Plug-In . SVG Version: 6.00 Build 0)  -->
<svg version="1.1" id="Layer_1" xmlns="http://www.w3.org/2000/svg" xmlns:xlink="http://www.w3.org/1999/xlink" x="0px" y="0px"
	 viewBox="0 0 520.5 132.3" style="enable-background:new 0 0 520.5 132.3;" xml:space="preserve">
<style type="text/css">
	.st0{fill:#272836;}
	.st1{fill:#9B3D3D;}
	.st2{fill:#BFBC51;}
	.st3{fill:#D3CD62;}
	.st4{fill:#768CAD;}
	.st5{fill:#93A6C1;}
	.st6{display:none;}
	.st7{display:inline;fill:#1E1E1E;}
	.st8{fill:#CC4D40;}
	.st9{display:none;fill:#CC4D40;}
</style>
<g>
	<g>
		<path class="st0" d="M221.7,102.8h-18.5l-8.1-17.5h-42.3l-8.2,17.5H126l41.2-87.3h13.2L221.7,102.8z M188.5,71.4L173.9,40
			l-14.7,31.4H188.5z"/>
		<path class="st0" d="M286.2,93.4c-3.3,3.7-7.1,6.4-11.6,8.3c-4.4,1.8-9.2,2.8-14.2,2.8c-4.6,0-8.9-0.8-13-2.5
			c-4.1-1.7-7.6-4-10.6-6.9c-3-2.9-5.4-6.4-7.1-10.5c-1.7-4.1-2.6-8.5-2.6-13.2c0-4.6,0.9-9,2.6-13c1.7-4,4.1-7.5,7-10.5
			c3-3,6.5-5.3,10.5-7c4.1-1.7,8.4-2.6,13.1-2.6c4.8,0,9.3,0.9,13.6,2.6s8.1,4.4,11.3,7.9l-10.6,10.8c-1.6-2.1-3.5-3.9-5.8-5.2
			c-2.3-1.4-5.1-2.1-8.3-2.1c-2.4,0-4.7,0.5-6.8,1.5c-2.1,1-4,2.4-5.7,4.1c-1.6,1.7-2.9,3.7-3.9,6.1c-0.9,2.3-1.4,4.8-1.4,7.4
			c0,2.6,0.5,5.1,1.4,7.4c0.9,2.3,2.2,4.4,3.8,6.1c1.6,1.7,3.5,3.1,5.7,4.1c2.2,1,4.5,1.5,6.9,1.5c3.1,0,6-0.7,8.5-2.2
			c2.5-1.5,4.6-3.4,6.1-5.7L286.2,93.4z"/>
		<path class="st0" d="M360.2,71.2c0,1-0.1,2.1-0.2,3.2c-0.1,1.1-0.2,2.2-0.4,3.4h-50.4c1.2,3.7,3.4,6.9,6.4,9.4
			c3,2.6,6.9,3.9,11.5,3.9c2.8,0,5.7-0.5,8.5-1.5c2.8-1,5.2-2.3,7.1-4l9.9,9.9c-4.4,3.3-8.6,5.6-12.8,6.9c-4.2,1.3-8.6,2-13.3,2
			c-4.7,0-9.1-0.9-13.3-2.6c-4.1-1.7-7.7-4.1-10.7-7.1c-3-3-5.4-6.5-7.1-10.5c-1.7-4-2.6-8.3-2.6-12.9c0-4.6,0.9-8.9,2.6-12.9
			c1.7-4,4.1-7.5,7.2-10.5c3.1-3,6.6-5.3,10.7-7.1c4.1-1.7,8.4-2.6,13.1-2.6c4.4,0,8.7,0.8,12.8,2.5c4.1,1.6,7.7,3.9,10.8,6.8
			c3.1,2.9,5.6,6.4,7.4,10.4S360.2,66.3,360.2,71.2z M343.7,65.1c-1.2-4-3.4-7.2-6.6-9.7c-3.2-2.4-6.7-3.7-10.7-3.7
			c-3.9,0-7.5,1.2-10.6,3.7c-3.1,2.4-5.3,5.7-6.5,9.7H343.7z"/>
		<path class="st0" d="M397.7,102.5c-1.2,0.6-2.6,1.1-4.2,1.4c-1.6,0.4-3.2,0.5-4.9,0.5c-2.3,0-4.6-0.3-6.7-0.9
			c-2.1-0.6-4-1.6-5.6-3c-1.6-1.4-2.9-3.2-3.8-5.3c-0.9-2.2-1.4-4.9-1.4-8.1V12.2h16v72.1c0,2.6,0.5,4.4,1.6,5.4
			c1.1,1,2.3,1.5,3.8,1.5c1.8,0,3.6-0.5,5.2-1.6V102.5z"/>
		<path class="st0" d="M471.6,71.3c0,4.7-0.9,9.1-2.6,13.1s-4.1,7.5-7.2,10.5c-3.1,2.9-6.6,5.3-10.7,7c-4.1,1.7-8.5,2.6-13.1,2.6
			s-9-0.9-13.1-2.6c-4.1-1.7-7.6-4.1-10.7-7c-3.1-3-5.5-6.5-7.2-10.5c-1.7-4-2.6-8.4-2.6-13c0-4.6,0.9-8.9,2.7-12.9
			c1.8-4,4.2-7.6,7.3-10.6c3.1-3,6.6-5.4,10.7-7.1c4.1-1.7,8.4-2.6,13-2.6c4.7,0,9,0.9,13.1,2.6c4.1,1.7,7.7,4,10.7,7
			c3.1,2.9,5.5,6.5,7.2,10.5C470.7,62.3,471.6,66.6,471.6,71.3z M455.9,71.3c0-2.7-0.5-5.2-1.4-7.5c-0.9-2.3-2.2-4.4-3.9-6.1
			c-1.6-1.7-3.5-3.1-5.7-4.1c-2.2-1-4.5-1.5-7-1.5c-2.5,0-4.8,0.5-7,1.5c-2.2,1-4.1,2.3-5.7,4.1c-1.6,1.7-2.9,3.8-3.9,6.1
			c-0.9,2.3-1.4,4.8-1.4,7.5c0,2.7,0.5,5.2,1.4,7.5c0.9,2.3,2.2,4.4,3.9,6.1c1.6,1.7,3.5,3.1,5.7,4.1c2.2,1,4.5,1.5,7,1.5
			c2.5,0,4.8-0.5,7-1.5c2.2-1,4.1-2.3,5.7-4.1c1.6-1.7,2.9-3.8,3.9-6.1C455.4,76.5,455.9,74,455.9,71.3z"/>
		<path class="st0" d="M517.6,101.4c-1.6,1-3.5,1.8-5.6,2.3c-2.1,0.5-4.2,0.8-6.3,0.8c-3.7,0-6.8-0.5-9.4-1.4
			c-2.5-0.9-4.6-2.3-6.1-4.2c-1.5-1.9-2.6-4.3-3.3-7.2c-0.7-2.9-1-6.3-1-10.3V53.8h-8.3v-6c5.1-2.5,9.4-6.1,12.9-10.6
			c3.5-4.5,5.7-9.9,6.5-16h4.6v18.4h15.9v14.2h-15.9v28.8c0,3.2,0.7,5.3,2.1,6.3c1.4,1,3.1,1.5,5,1.5c1.2,0,2.7-0.2,4.5-0.7
			c1.7-0.4,3.2-1.2,4.5-2.2V101.4z"/>
	</g>
	<g>
		<g>
			<path class="st1" d="M106.7,48.3v-9.5c0.5-0.3,3.2-2.2,3.4-4c3.3-0.2,6.7,0.4,10,1.7C119.2,41.7,110.4,47.5,106.7,48.3z"/>
			<path class="st1" d="M14.3,104.1c-0.1-1.7,2.7-4.2,2.7-4.2l-3-4.1l-2.7-4.3c-2.8,2.1-6.6,6.3-7.1,11.3
				C7.9,104.3,10.4,104.4,14.3,104.1z"/>
			<path class="st2" d="M107.7,90.6c-11.9,19.1-28,31.5-49.5,38.4c-21.3-6.7-39.7-18.2-49.5-38.4l0-78.5l49.5-8.5l49.5,8.5
				L107.7,90.6z"/>
			<path class="st3" d="M58.2,129c-21.3-6.7-39.7-18.2-49.5-38.4l0-78.5l49.5-8.5"/>
			<g>
				<polyline class="st4" points="58.2,92.3 82.7,78.1 82.7,49.9 58.2,35.7 				"/>
				<polyline class="st5" points="58.2,35.7 33.7,49.9 33.7,78.1 58.2,92.3 				"/>
			</g>
			<g class="st6">
				<path class="st7" d="M47.5,111.9c-4,1.8-7.3,4.6-9.9,8c-1.7,1.9-3.9,3.5-6.3,4.7c-4.7,2.2-10.1,2.4-15,0.6
					c-3.7-1.4-6.8-4.1-8.4-7.8c-1.6-3.7-1.9-7.7-0.5-11.5c1-2.7,4-4.8,6.6-6.1l-3.5-5.7c-4.3,2-7.4,5-9.1,9.5
					c-0.9,2.4-1.4,5-1.3,7.6c0.1,3.1,0.7,6.1,2,8.8c2.5,5.2,6.7,9.2,12.1,11.2c6.5,2.4,13.7,2.2,20-0.9c4-1.8,7.4-4.7,9.9-8.1
					c1.7-1.9,3.9-3.5,6.2-4.6L47.5,111.9z"/>
				<path class="st7" d="M77.4,14.5c4.3-0.7,8.3-2.4,11.7-5c2.2-1.4,4.7-2.3,7.4-2.8c5.1-0.8,10.3,0.5,14.6,3.5
					c3.2,2.3,5.4,5.8,6,9.8s-0.3,7.9-2.7,11.2c-1.7,2.3-4.1,4.3-6.5,4.5l0,6.6c5.4-0.8,8.9-3.3,11.7-7.1c1.5-2.1,2.7-4.5,3.3-6.9
					c0.8-3,1-6.1,0.5-9.1c-0.9-5.7-3.9-10.7-8.6-14.1c-5.6-4.1-12.5-5.8-19.4-4.7C91,1,86.9,2.8,83.6,5.5c-2.2,1.4-4.7,2.3-7.3,2.7
					L77.4,14.5z"/>
			</g>
			<g>
				<path class="st8" d="M52.5,102c-0.9-1.7-2.1-3.4-3.9-4.9C41.4,91,34.3,94.7,28,98c-0.7,0.4-1.5,0.8-2.4,1.3
					c-2.5,1.3-8.7,4.7-11.4,4.9c-3.9,0.3-6.4,0.1-10-1.2c-0.2,1.9,0.1,3.9,1,6c1.1,2.3,2.9,4,5.3,4.8c5.5,1.9,12-1.3,20-5.6
					c0.8-0.4,1.5-0.8,2.2-1.2c3.8-2,5.7-2.8,7-3C44.1,102.5,48,101.9,52.5,102z"/>
				<path class="st9" d="M70.8,116.7c-3.1,1.6-9,4.5-11.5,5.1c-0.6,0.1-1.1,0.3-1.6,0.5c-0.9,0.3-2.2,0.6-3,0.7
					c-3.9,0.7-7.1,0.8-10.4-0.6c0.1,0.6,0.2,1.2,0.3,1.8c0.9,3.7,2.5,6.1,4.9,7.6c1.6,0.9,3.2,1.2,4.8,1.2c2.2,0,4.3-0.6,6.2-1.1
					c0.5-0.1,1-0.3,1.5-0.4c4.5-1.2,12.7-5.5,13.6-6L70.8,116.7z"/>
				<path class="st1" d="M54.6,123.1c-0.1-0.2-0.2-0.6-0.3-1c-0.3-1.3-0.2-3.5,0-5.6c0.3-4.2,0.7-9.6-1.8-14.4
					c-4.5-0.1-8.4,0.4-12.8,1.9c1.1-0.1,1.7,0.3,2.4,0.9c2.5,2.2,2.5,5.5,2.1,10.9c-0.2,2.3-0.3,4.6-0.1,6.8
					C47.5,123.9,50.7,123.7,54.6,123.1z"/>
			</g>
			<g>
				<path class="st8" d="M84.7,31.9c1.3,0.1,3.3-0.5,7.5-2.1c0.7-0.3,1.5-0.6,2.3-0.9c8.4-3.3,15.2-5.7,20.5-3.2
					c2.3,1.1,3.9,3,4.7,5.4c0.6,1.9,0.7,3.7,0.4,5.4c-3.3-1.3-6.6-2-10-1.7c-2.6-0.1-9.3,2.5-11.9,3.5c-0.9,0.3-1.7,0.7-2.5,1
					c-6.6,2.5-14.1,5.3-20.6-1.6c-2.3-2.5-3.5-5.2-4-7.9C74.5,32.6,80.2,32.4,84.7,31.9z"/>
				<path class="st9" d="M66.2,1.8c5.1-1.1,8.9-1.4,12.3,1.2c2.3,1.7,3.6,4.4,4,8.1c0,0.1,0,0.3,0,0.4c-3.2-0.8-6.8-1-10.2-0.3
					c-0.8,0-2.1,0.2-3.1,0.4c-0.6,0.1-1.1,0.2-1.7,0.3c-2.4,0.3-6.2,2-8,3l-4.8-8.9C55.5,5.6,61.3,2.8,66.2,1.8z"/>
				<path class="st1" d="M81.7,19.7c-1,5.2-1.4,8.6,0.8,11c0.6,0.7,1.1,1.1,2.1,1.2c-4.4,0.5-10.2,0.6-13.5-2.2
					c-0.8-4.2,0-8.4,0.7-11.9c0.4-2.1,0.8-4.3,0.7-5.6c-0.1-0.5-0.1-0.8-0.2-1.1c3.4-0.7,7-0.5,10.2,0.3
					C82.8,14.2,82.3,17,81.7,19.7z"/>
			</g>
		</g>
	</g>
</g>
</svg>
